<svg width="50" height="52" viewBox="0 0 50 52" fill="none" xmlns="http://www.w3.org/2000/svg">
<path d="M6.17255 27.5884C5.32028 27.5884 4.62978 26.8734 4.62978 26C4.62978 25.1211 5.32028 24.4102 6.17255 24.4102C7.02614 24.4102 7.71664 25.1211 7.71664 26C7.71664 26.8734 7.02614 27.5884 6.17255 27.5884ZM9.15682 25.2051C8.81486 23.8347 7.61142 22.8231 6.17255 22.8231C4.46669 22.8231 3.08569 24.2436 3.08569 26C3.08569 27.7509 4.46669 29.1755 6.17255 29.1755C7.61142 29.1755 8.81486 28.1599 9.15682 26.7935H10.9863C10.9705 26.5295 10.964 26.2654 10.964 26C10.964 25.7332 10.9705 25.4692 10.9863 25.2051H9.15682Z" fill="url(#paint0_linear_101_485)"/>
<mask id="mask0_101_485" style="mask-type:luminance" maskUnits="userSpaceOnUse" x="0" y="15" width="14" height="7">
<path d="M0 15.0475H13.6245V21.6341H0V15.0475Z" fill="white"/>
</mask>
<g mask="url(#mask0_101_485)">
<path d="M3.08554 20.0417C2.23459 20.0417 1.54409 19.3267 1.54409 18.4532C1.54409 17.5771 2.23459 16.8648 3.08554 16.8648C3.93913 16.8648 4.62963 17.5771 4.62963 18.4532C4.62963 19.3267 3.93913 20.0417 3.08554 20.0417ZM3.08554 15.2764C1.38231 15.2764 0 16.6982 0 18.4532C0 20.2042 1.38231 21.6315 3.08554 21.6315C4.52573 21.6315 5.73048 20.6131 6.07244 19.2468H12.5908C12.8709 18.6983 13.1866 18.1702 13.5377 17.6597H6.07244C5.73048 16.2893 4.52573 15.2764 3.08554 15.2764Z" fill="url(#paint1_linear_101_485)"/>
</g>
<mask id="mask1_101_485" style="mask-type:luminance" maskUnits="userSpaceOnUse" x="0" y="30" width="14" height="7">
<path d="M0 30.3009H13.6245V36.8876H0V30.3009Z" fill="white"/>
</mask>
<g mask="url(#mask1_101_485)">
<path d="M3.08554 35.1339C2.23459 35.1339 1.54409 34.4202 1.54409 33.5468C1.54409 32.6679 2.23459 31.957 3.08554 31.957C3.93913 31.957 4.62963 32.6679 4.62963 33.5468C4.62963 34.4202 3.93913 35.1339 3.08554 35.1339ZM6.07244 32.7519C5.73048 31.3815 4.52573 30.3672 3.08554 30.3672C1.38231 30.3672 0 31.7904 0 33.5468C0 35.2964 1.38231 36.7223 3.08554 36.7223C4.52573 36.7223 5.73048 35.7067 6.07244 34.339H13.5351C13.1852 33.8311 12.8696 33.3003 12.5881 32.7519H6.07244Z" fill="url(#paint2_linear_101_485)"/>
</g>
<path d="M43.8195 24.4102C44.6731 24.4102 45.3636 25.1252 45.3636 26C45.3636 26.8775 44.6731 27.5884 43.8195 27.5884C42.9673 27.5884 42.2768 26.8775 42.2768 26C42.2768 25.1252 42.9673 24.4102 43.8195 24.4102ZM40.8353 26.7935C41.1785 28.164 42.382 29.1755 43.8195 29.1755C45.5254 29.1755 46.9077 27.7563 46.9077 26C46.9077 24.2477 45.5254 22.8231 43.8195 22.8231C42.382 22.8231 41.1785 23.8387 40.8353 25.2051H39.0071C39.0229 25.4692 39.0294 25.7332 39.0294 26C39.0294 26.2654 39.0229 26.5295 39.0071 26.7935H40.8353Z" fill="url(#paint3_linear_101_485)"/>
<mask id="mask2_101_485" style="mask-type:luminance" maskUnits="userSpaceOnUse" x="36" y="30" width="15" height="7">
<path d="M36.1836 30.3009H50.0001V36.8876H36.1836V30.3009Z" fill="white"/>
</mask>
<g mask="url(#mask2_101_485)">
<path d="M46.908 35.1339C46.0544 35.1339 45.3639 34.4229 45.3639 33.5468C45.3639 32.672 46.0544 31.957 46.908 31.957C47.7589 31.957 48.4494 32.672 48.4494 33.5468C48.4494 34.4229 47.7589 35.1339 46.908 35.1339ZM46.908 30.3672C45.4665 30.3672 44.2631 31.3855 43.9211 32.7519H37.4028C37.1213 33.3003 36.8057 33.8284 36.4558 34.339H43.9211C44.2631 35.7094 45.4665 36.7223 46.908 36.7223C48.6112 36.7223 49.9922 35.3004 49.9922 33.5468C49.9922 31.7945 48.6112 30.3672 46.908 30.3672Z" fill="url(#paint4_linear_101_485)"/>
</g>
<mask id="mask3_101_485" style="mask-type:luminance" maskUnits="userSpaceOnUse" x="36" y="15" width="15" height="7">
<path d="M36.1836 15.0475H50.0001V21.6341H36.1836V15.0475Z" fill="white"/>
</mask>
<g mask="url(#mask3_101_485)">
<path d="M46.9079 16.8648C47.7589 16.8648 48.4494 17.5784 48.4494 18.4532C48.4494 19.3307 47.7589 20.0417 46.9079 20.0417C46.0543 20.0417 45.3638 19.3307 45.3638 18.4532C45.3638 17.5784 46.0543 16.8648 46.9079 16.8648ZM43.921 19.2468C44.263 20.6172 45.4664 21.6315 46.9079 21.6315C48.6111 21.6315 49.9921 20.2082 49.9921 18.4532C49.9921 16.7023 48.6111 15.2764 46.9079 15.2764C45.4664 15.2764 44.263 16.292 43.921 17.6597H36.457C36.8082 18.1675 37.1239 18.6983 37.404 19.2468H43.921Z" fill="url(#paint5_linear_101_485)"/>
</g>
<path d="M24.9961 4.76531C25.8497 4.76531 26.5402 5.47624 26.5402 6.3551C26.5402 7.2326 25.8497 7.94353 24.9961 7.94353C24.1478 7.94353 23.4533 7.2326 23.4533 6.3551C23.4533 5.47624 24.1478 4.76531 24.9961 4.76531ZM24.224 9.42905V11.5741C24.4818 11.5578 24.7383 11.551 24.9961 11.551C25.2552 11.551 25.5117 11.5578 25.7681 11.5741V9.42905C27.0992 9.07426 28.0816 7.8352 28.0816 6.3551C28.0816 4.6001 26.702 3.17822 24.9961 3.17822C23.2955 3.17822 21.9119 4.6001 21.9119 6.3551C21.9119 7.8352 22.8983 9.07426 24.224 9.42905Z" fill="url(#paint6_linear_101_485)"/>
<mask id="mask4_101_485" style="mask-type:luminance" maskUnits="userSpaceOnUse" x="29" y="0" width="7" height="15">
<path d="M29.1128 0H35.5101V14.3542H29.1128V0Z" fill="white"/>
</mask>
<g mask="url(#mask4_101_485)">
<path d="M32.3259 1.58844C33.1768 1.58844 33.8673 2.29937 33.8673 3.17823C33.8673 4.05573 33.1768 4.76531 32.3259 4.76531C31.4775 4.76531 30.7831 4.05573 30.7831 3.17823C30.7831 2.29937 31.4775 1.58844 32.3259 1.58844ZM31.5551 6.25083V13.2261C32.0878 13.5159 32.6008 13.8409 33.0966 14.2011V6.25083C34.4276 5.89875 35.4114 4.65833 35.4114 3.17823C35.4114 1.42187 34.0304 0 32.3259 0C30.6253 0 29.239 1.42187 29.239 3.17823C29.239 4.65833 30.2281 5.89875 31.5551 6.25083Z" fill="url(#paint7_linear_101_485)"/>
</g>
<mask id="mask5_101_485" style="mask-type:luminance" maskUnits="userSpaceOnUse" x="14" y="0" width="8" height="15">
<path d="M14.2981 0H21.0321V14.3542H14.2981V0Z" fill="white"/>
</mask>
<g mask="url(#mask5_101_485)">
<path d="M17.6663 1.58844C18.5198 1.58844 19.2103 2.29937 19.2103 3.17823C19.2103 4.05573 18.5198 4.76531 17.6663 4.76531C16.8179 4.76531 16.1248 4.05573 16.1248 3.17823C16.1248 2.29937 16.8179 1.58844 17.6663 1.58844ZM16.8968 6.25083V14.1998C17.3901 13.8382 17.9056 13.5132 18.4383 13.2248V6.25083C19.7693 5.89875 20.7531 4.65833 20.7531 3.17823C20.7531 1.42187 19.3721 0 17.6663 0C15.967 0 14.582 1.42187 14.582 3.17823C14.582 4.65833 15.5685 5.89875 16.8968 6.25083Z" fill="url(#paint8_linear_101_485)"/>
</g>
<path d="M24.9961 47.2333C24.1438 47.2333 23.4533 46.5224 23.4533 45.6449C23.4533 44.766 24.1438 44.0551 24.9961 44.0551C25.8457 44.0551 26.5402 44.766 26.5402 45.6449C26.5402 46.5224 25.8457 47.2333 24.9961 47.2333ZM25.7681 42.5696V40.4246C25.5117 40.4408 25.2552 40.4476 24.9961 40.4476C24.7383 40.4476 24.4818 40.4408 24.224 40.4246V42.5696C22.8943 42.9244 21.9119 44.1634 21.9119 45.6449C21.9119 47.3985 23.2902 48.8204 24.9961 48.8204C26.698 48.8204 28.0816 47.3985 28.0816 45.6449C28.0816 44.1634 27.0952 42.9244 25.7681 42.5696Z" fill="url(#paint9_linear_101_485)"/>
<mask id="mask6_101_485" style="mask-type:luminance" maskUnits="userSpaceOnUse" x="14" y="37" width="8" height="15">
<path d="M14.2981 37.5808H21.0321V52H14.2981V37.5808Z" fill="white"/>
</mask>
<g mask="url(#mask6_101_485)">
<path d="M17.6663 50.4101C16.8153 50.4101 16.1248 49.6991 16.1248 48.8203C16.1248 47.9428 16.8153 47.2332 17.6663 47.2332C18.5146 47.2332 19.2103 47.9428 19.2103 48.8203C19.2103 49.6991 18.5146 50.4101 17.6663 50.4101ZM18.4383 45.7477V38.7724C17.9056 38.4839 17.3927 38.1589 16.8968 37.7974V45.7477C15.5658 46.0998 14.582 47.3402 14.582 48.8203C14.582 50.5766 15.963 51.9999 17.6663 51.9999C19.3682 51.9999 20.7531 50.5766 20.7531 48.8203C20.7531 47.3402 19.7654 46.0998 18.4383 45.7477Z" fill="url(#paint10_linear_101_485)"/>
</g>
<mask id="mask7_101_485" style="mask-type:luminance" maskUnits="userSpaceOnUse" x="29" y="37" width="7" height="15">
<path d="M29.1128 37.5808H35.5101V52H29.1128V37.5808Z" fill="white"/>
</mask>
<g mask="url(#mask7_101_485)">
<path d="M32.3259 50.4102C31.4736 50.4102 30.7831 49.6992 30.7831 48.8204C30.7831 47.9429 31.4736 47.2333 32.3259 47.2333C33.1755 47.2333 33.8673 47.9429 33.8673 48.8204C33.8673 49.6992 33.1755 50.4102 32.3259 50.4102ZM33.0966 45.7478V37.7988C32.6021 38.1604 32.0878 38.4854 31.5551 38.7752V45.7478C30.2241 46.0999 29.239 47.3403 29.239 48.8204C29.239 50.5767 30.62 52 32.3259 52C34.0252 52 35.4114 50.5767 35.4114 48.8204C35.4114 47.3403 34.425 46.0999 33.0966 45.7478Z" fill="url(#paint11_linear_101_485)"/>
</g>
<path d="M21.7146 27.1064H24.6568L23.1719 22.922L21.7146 27.1064Z" fill="url(#paint12_linear_101_485)"/>
<path d="M31.3355 29.9907C31.3355 30.4105 31.2408 30.7219 31.0541 30.9291C30.8713 31.1377 30.6266 31.2419 30.3268 31.2419C30.04 31.2419 29.8033 31.1377 29.6192 30.9278C29.4324 30.7179 29.3403 30.4064 29.3403 29.9907V22.0011C29.3403 21.5854 29.4298 21.2766 29.6139 21.0694C29.798 20.8609 30.0348 20.758 30.3268 20.758C30.6266 20.758 30.8713 20.8595 31.0541 21.064C31.2408 21.2698 31.3355 21.5813 31.3355 22.0011V29.9907ZM27.5095 30.9481C27.3188 31.1444 27.0886 31.2419 26.8203 31.2419C26.6625 31.2419 26.5297 31.2121 26.4179 31.1553C26.3061 31.097 26.2114 31.0198 26.1338 30.921C26.0575 30.8221 25.976 30.6678 25.8891 30.4646C25.8037 30.2588 25.7274 30.0787 25.6656 29.9203L25.1934 28.6473H21.1898L20.7203 29.9473C20.5361 30.4552 20.3809 30.7991 20.252 30.9752C20.1205 31.1539 19.9075 31.2419 19.6142 31.2419C19.3616 31.2419 19.1407 31.1471 18.9473 30.9589C18.754 30.7693 18.6606 30.5554 18.6606 30.3157C18.6606 30.1762 18.6817 30.034 18.7251 29.8864C18.7711 29.7374 18.8434 29.533 18.9473 29.2703L21.466 22.6877C21.5383 22.4981 21.6238 22.2706 21.7251 22.0052C21.8264 21.7397 21.9329 21.5204 22.0473 21.3443C22.1618 21.171 22.313 21.0288 22.4972 20.9205C22.6839 20.8121 22.9141 20.758 23.185 20.758C23.4639 20.758 23.6966 20.8121 23.8808 20.9205C24.0662 21.0288 24.2188 21.1683 24.3319 21.3376C24.4463 21.5095 24.5423 21.6923 24.6199 21.8887C24.6989 22.0851 24.7988 22.3451 24.9198 22.6714L27.4911 29.2161C27.6936 29.7131 27.7949 30.076 27.7949 30.3021C27.7949 30.5364 27.7002 30.7517 27.5095 30.9481ZM32.4535 17.4213C30.4754 15.5972 27.8607 14.4855 24.9961 14.4855C22.1328 14.4855 19.5168 15.5972 17.54 17.4213C17.2296 17.703 16.939 18.0036 16.6641 18.3218C14.8925 20.3585 13.814 23.0506 13.814 25.9999C13.814 28.948 14.8925 31.6414 16.6641 33.6767C16.939 33.9963 17.2296 34.2956 17.54 34.5786C19.5168 36.4026 22.1328 37.5131 24.9961 37.5131C27.8607 37.5131 30.4754 36.4026 32.4535 34.5786C32.7626 34.2956 33.0546 33.9963 33.3281 33.6767C35.0997 31.6414 36.1796 28.948 36.1796 25.9999C36.1796 23.0506 35.0997 20.3585 33.3281 18.3218C33.0546 18.0036 32.7626 17.703 32.4535 17.4213Z" fill="url(#paint13_linear_101_485)"/>
<path d="M42.0953 15.7341C40.1383 15.7341 38.56 15.1491 37.3855 13.9872C34.7655 11.3939 35.2088 6.91978 35.2285 6.7302C35.2693 6.3551 35.5954 6.08562 35.9598 6.12624C36.3241 6.16687 36.5858 6.50406 36.5464 6.87781C36.5424 6.91843 36.1584 10.8848 38.3075 13.0068C39.5056 14.1889 41.3088 14.6047 43.6671 14.2404C44.0287 14.1849 44.3668 14.4408 44.4207 14.8146C44.4759 15.187 44.226 15.535 43.8643 15.5905C43.2435 15.6867 42.6543 15.7341 42.0953 15.7341Z" fill="url(#paint14_linear_101_485)"/>
<path d="M43.55 12.8348C42.1243 12.8348 40.9682 12.4055 40.1041 11.5497C38.1931 9.65926 38.5153 6.41738 38.5298 6.27926C38.5692 5.90551 38.8954 5.63467 39.2611 5.67665C39.6241 5.71728 39.8858 6.05311 39.8477 6.42822C39.845 6.45395 39.5859 9.14874 41.0274 10.5706C41.8231 11.3547 43.0345 11.6282 44.6285 11.3818C44.9902 11.3262 45.3282 11.5835 45.3822 11.9559C45.4361 12.3283 45.1875 12.6763 44.8245 12.7319C44.3786 12.8009 43.9538 12.8348 43.55 12.8348Z" fill="url(#paint15_linear_101_485)"/>
<path d="M8.39919 36.6478C10.3549 36.6478 11.9345 37.2315 13.109 38.3947C15.729 40.9866 15.2844 45.4621 15.2647 45.6517C15.2253 46.0254 14.8978 46.2963 14.5334 46.2543C14.1704 46.2137 13.9074 45.8778 13.9469 45.5027C13.9508 45.4634 14.3362 41.4957 12.1858 39.3738C10.9876 38.1916 9.18438 37.7772 6.82616 38.1401C6.46447 38.197 6.12646 37.9397 6.07253 37.5673C6.01861 37.1936 6.26719 36.8469 6.63019 36.7914C7.24967 36.6952 7.84021 36.6478 8.39919 36.6478Z" fill="url(#paint16_linear_101_485)"/>
<path d="M6.9432 39.5458C8.37023 39.5458 9.52501 39.9764 10.3891 40.8309C12.3002 42.7226 11.9792 45.9645 11.9648 46.1013C11.924 46.4764 11.5978 46.7459 11.2335 46.7053C10.8692 46.6646 10.6074 46.3274 10.6469 45.9537C10.6495 45.9266 10.9073 43.2318 9.46714 41.8113C8.67011 41.0259 7.45877 40.7523 5.86471 40.9988C5.50302 41.0543 5.165 40.7984 5.11108 40.426C5.05715 40.0522 5.30705 39.7056 5.66874 39.6487C6.1146 39.5796 6.53942 39.5458 6.9432 39.5458Z" fill="url(#paint17_linear_101_485)"/>
<path d="M35.4036 43.5378C35.4036 41.5242 35.9704 39.8978 37.1002 38.6886C39.6176 35.9911 43.9644 36.4474 44.1473 36.4677C44.5116 36.5097 44.7746 36.8455 44.7338 37.2206C44.6944 37.5957 44.3682 37.8652 44.0039 37.8246C43.9657 37.8205 40.1134 37.4251 38.0511 39.6392C36.9029 40.8715 36.5005 42.728 36.853 45.156C36.9082 45.5284 36.6583 45.8765 36.2966 45.932C35.9349 45.9889 35.5969 45.7316 35.543 45.3592C35.4496 44.72 35.4036 44.1133 35.4036 43.5378Z" fill="url(#paint18_linear_101_485)"/>
<path d="M38.218 45.0355C38.218 43.5676 38.6363 42.3773 39.4662 41.4876C41.3036 39.52 44.4522 39.8504 44.5851 39.8667C44.9494 39.9073 45.2111 40.2431 45.1717 40.6196C45.1322 40.9933 44.8047 41.2642 44.4417 41.2236C44.4154 41.2208 41.7981 40.9541 40.4184 42.4382C39.6556 43.2575 39.3912 44.506 39.6293 46.1459C39.6832 46.5183 39.4346 46.8664 39.0716 46.9219C38.7099 46.9788 38.3732 46.7215 38.318 46.3491C38.2509 45.8887 38.218 45.4513 38.218 45.0355Z" fill="url(#paint19_linear_101_485)"/>
<path d="M15.0909 8.84409C15.0909 10.8577 14.5227 12.4841 13.3942 13.6934C10.8756 16.3909 6.53003 15.9332 6.3459 15.9128C5.98158 15.8722 5.71985 15.535 5.75931 15.1599C5.79876 14.7862 6.12626 14.5153 6.48926 14.556C6.52872 14.56 10.381 14.9568 12.442 12.7427C13.5902 11.5091 13.994 9.65253 13.6402 7.22451C13.5863 6.85212 13.8349 6.5041 14.1979 6.44858C14.5595 6.39305 14.8962 6.65035 14.9515 7.02274C15.0449 7.66055 15.0909 8.26857 15.0909 8.84409Z" fill="url(#paint20_linear_101_485)"/>
<path d="M12.2752 7.34506C12.2752 8.81433 11.8583 10.0033 11.027 10.893C9.19097 12.8606 6.04229 12.5302 5.90814 12.5153C5.54514 12.4733 5.28209 12.1375 5.32155 11.7624C5.36232 11.3886 5.6885 11.1178 6.0515 11.1584C6.07781 11.1611 8.69512 11.4265 10.0761 9.94371C10.8376 9.12308 11.1033 7.87589 10.8639 6.23464C10.81 5.86225 11.0599 5.51423 11.4216 5.45871C11.7833 5.40319 12.1213 5.66048 12.1752 6.03287C12.2423 6.49194 12.2752 6.92933 12.2752 7.34506Z" fill="url(#paint21_linear_101_485)"/>
<defs>
<linearGradient id="paint0_linear_101_485" x1="7.036" y1="22.8231" x2="7.036" y2="29.1755" gradientUnits="userSpaceOnUse">
<stop stop-color="#32BC8B"/>
<stop offset="1" stop-color="#29B6C8"/>
</linearGradient>
<linearGradient id="paint1_linear_101_485" x1="6.76886" y1="15.2764" x2="6.76886" y2="21.6315" gradientUnits="userSpaceOnUse">
<stop stop-color="#32BC8B"/>
<stop offset="1" stop-color="#29B6C8"/>
</linearGradient>
<linearGradient id="paint2_linear_101_485" x1="6.76755" y1="30.3672" x2="6.76755" y2="36.7223" gradientUnits="userSpaceOnUse">
<stop stop-color="#32BC8B"/>
<stop offset="1" stop-color="#29B6C8"/>
</linearGradient>
<linearGradient id="paint3_linear_101_485" x1="42.9574" y1="22.8231" x2="42.9574" y2="29.1755" gradientUnits="userSpaceOnUse">
<stop stop-color="#32BC8B"/>
<stop offset="1" stop-color="#29B6C8"/>
</linearGradient>
<linearGradient id="paint4_linear_101_485" x1="43.224" y1="30.3672" x2="43.224" y2="36.7223" gradientUnits="userSpaceOnUse">
<stop stop-color="#32BC8B"/>
<stop offset="1" stop-color="#29B6C8"/>
</linearGradient>
<linearGradient id="paint5_linear_101_485" x1="43.2246" y1="15.2764" x2="43.2246" y2="21.6315" gradientUnits="userSpaceOnUse">
<stop stop-color="#32BC8B"/>
<stop offset="1" stop-color="#29B6C8"/>
</linearGradient>
<linearGradient id="paint6_linear_101_485" x1="24.9968" y1="3.17822" x2="24.9968" y2="11.5741" gradientUnits="userSpaceOnUse">
<stop stop-color="#32BC8B"/>
<stop offset="1" stop-color="#29B6C8"/>
</linearGradient>
<linearGradient id="paint7_linear_101_485" x1="32.3252" y1="0" x2="32.3252" y2="14.2011" gradientUnits="userSpaceOnUse">
<stop stop-color="#32BC8B"/>
<stop offset="1" stop-color="#29B6C8"/>
</linearGradient>
<linearGradient id="paint8_linear_101_485" x1="17.6676" y1="0" x2="17.6676" y2="14.1998" gradientUnits="userSpaceOnUse">
<stop stop-color="#32BC8B"/>
<stop offset="1" stop-color="#29B6C8"/>
</linearGradient>
<linearGradient id="paint9_linear_101_485" x1="24.9968" y1="40.4246" x2="24.9968" y2="48.8204" gradientUnits="userSpaceOnUse">
<stop stop-color="#32BC8B"/>
<stop offset="1" stop-color="#29B6C8"/>
</linearGradient>
<linearGradient id="paint10_linear_101_485" x1="17.6676" y1="37.7974" x2="17.6676" y2="51.9999" gradientUnits="userSpaceOnUse">
<stop stop-color="#32BC8B"/>
<stop offset="1" stop-color="#29B6C8"/>
</linearGradient>
<linearGradient id="paint11_linear_101_485" x1="32.3252" y1="37.7988" x2="32.3252" y2="52" gradientUnits="userSpaceOnUse">
<stop stop-color="#32BC8B"/>
<stop offset="1" stop-color="#29B6C8"/>
</linearGradient>
<linearGradient id="paint12_linear_101_485" x1="23.1857" y1="22.922" x2="23.1857" y2="27.1064" gradientUnits="userSpaceOnUse">
<stop stop-color="#32BC8B"/>
<stop offset="1" stop-color="#29B6C8"/>
</linearGradient>
<linearGradient id="paint13_linear_101_485" x1="24.9968" y1="14.4855" x2="24.9968" y2="37.5131" gradientUnits="userSpaceOnUse">
<stop stop-color="#32BC8B"/>
<stop offset="1" stop-color="#29B6C8"/>
</linearGradient>
<linearGradient id="paint14_linear_101_485" x1="39.8084" y1="6.12219" x2="39.8084" y2="15.7341" gradientUnits="userSpaceOnUse">
<stop stop-color="#32BC8B"/>
<stop offset="1" stop-color="#29B6C8"/>
</linearGradient>
<linearGradient id="paint15_linear_101_485" x1="41.9451" y1="5.67236" x2="41.9451" y2="12.8348" gradientUnits="userSpaceOnUse">
<stop stop-color="#32BC8B"/>
<stop offset="1" stop-color="#29B6C8"/>
</linearGradient>
<linearGradient id="paint16_linear_101_485" x1="10.6851" y1="36.6478" x2="10.6851" y2="46.2586" gradientUnits="userSpaceOnUse">
<stop stop-color="#32BC8B"/>
<stop offset="1" stop-color="#29B6C8"/>
</linearGradient>
<linearGradient id="paint17_linear_101_485" x1="8.54868" y1="39.5458" x2="8.54868" y2="46.7093" gradientUnits="userSpaceOnUse">
<stop stop-color="#32BC8B"/>
<stop offset="1" stop-color="#29B6C8"/>
</linearGradient>
<linearGradient id="paint18_linear_101_485" x1="40.0708" y1="36.4265" x2="40.0708" y2="45.9399" gradientUnits="userSpaceOnUse">
<stop stop-color="#32BC8B"/>
<stop offset="1" stop-color="#29B6C8"/>
</linearGradient>
<linearGradient id="paint19_linear_101_485" x1="41.6968" y1="39.8362" x2="41.6968" y2="46.9298" gradientUnits="userSpaceOnUse">
<stop stop-color="#32BC8B"/>
<stop offset="1" stop-color="#29B6C8"/>
</linearGradient>
<linearGradient id="paint20_linear_101_485" x1="10.4231" y1="6.44104" x2="10.4231" y2="15.9543" gradientUnits="userSpaceOnUse">
<stop stop-color="#32BC8B"/>
<stop offset="1" stop-color="#29B6C8"/>
</linearGradient>
<linearGradient id="paint21_linear_101_485" x1="8.79641" y1="5.45117" x2="8.79641" y2="12.5449" gradientUnits="userSpaceOnUse">
<stop stop-color="#32BC8B"/>
<stop offset="1" stop-color="#29B6C8"/>
</linearGradient>
</defs>
</svg>
