<svg width="88" height="93" viewBox="0 0 88 93" fill="none" xmlns="http://www.w3.org/2000/svg">
<mask id="mask0_78_253" style="mask-type:luminance" maskUnits="userSpaceOnUse" x="0" y="16" width="53" height="55">
<path d="M0 16.6985H52.5067V70.8099H0V16.6985Z" fill="white"/>
</mask>
<g mask="url(#mask0_78_253)">
<path d="M40.9773 62.4053L36.9852 59.0882C36.5704 58.6558 35.8898 58.6558 35.3352 58.9417C33.6875 60.097 31.7648 60.9641 29.8352 61.3893C29.2898 61.5382 28.875 61.9705 28.7352 62.6911L28.1875 68.0235H23.9227L23.375 62.5518C23.375 61.9705 22.8204 61.3893 22.2727 61.2499C20.3523 60.8176 18.4227 59.9481 16.7727 58.8023C16.2273 58.5069 15.6727 58.5069 15.125 58.9417L11.1398 62.2588L8.11021 59.0882L11.2727 54.9136C11.6875 54.4788 11.6875 53.7582 11.4148 53.1769C10.3125 51.4499 9.48521 49.4347 9.07729 47.4122C8.9375 46.8382 8.52271 46.4058 7.83521 46.2665L2.75 45.8317V41.3617L7.83521 40.7876C8.38979 40.7876 8.9375 40.2063 9.07729 39.6323C9.48521 37.6194 10.3125 35.597 11.4148 33.8676C11.6875 33.2959 11.6875 32.7146 11.2727 32.1406L8.11021 27.9563L11.1398 24.7881L15.125 28.1029C15.5398 28.5376 16.2273 28.5376 16.7727 28.2518C18.4227 27.0964 20.3523 26.2293 22.2727 25.7946C22.8273 25.6553 23.2352 25.2205 23.375 24.4999L23.9227 19.17H28.1875L28.7352 24.4999C28.7352 25.074 29.2898 25.6553 29.8352 25.7946C31.7648 26.2293 33.6875 27.0964 35.3352 28.2518C35.8898 28.5376 36.4375 28.5376 36.9852 28.1029L40.9773 24.7881L44 27.9563L40.8352 32.1406C40.4296 32.5753 40.4296 33.2959 40.7023 33.8676C41.8046 35.597 42.625 37.6194 43.0398 39.6323C43.1796 40.2063 43.5852 40.6411 44.2727 40.7876L49.3602 41.3617V45.8317L44.2727 46.4058C43.7273 46.4058 43.1796 46.9871 43.0398 47.5588C42.625 49.5812 41.8046 51.5965 40.7023 53.3235C40.4296 53.9047 40.4296 54.4788 40.8352 55.0529L44 59.2371L40.9773 62.4053ZM46.8829 58.5069L43.4454 54.0441C44.2727 52.4636 44.9602 50.8759 45.375 49.2882L50.7352 48.7141C51.4227 48.5676 51.9773 47.9935 51.9773 47.2729V40.2063C51.9773 39.4858 51.4227 38.9117 50.7352 38.7652L45.375 38.1911C44.9602 36.4641 44.2727 34.8764 43.4454 33.4352L46.8829 28.9724C47.2977 28.3911 47.2977 27.5312 46.75 27.0964L42.0704 22.1916C41.5227 21.6176 40.8352 21.6176 40.2898 22.0523L36.0227 25.6553C34.5148 24.7881 33 24.0676 31.4852 23.6328L30.9375 18.0146C30.7977 17.294 30.25 16.7224 29.5625 16.7224H22.8204C22.1398 16.7224 21.5852 17.294 21.4454 18.0146L20.8977 23.6328C19.25 24.0676 17.7352 24.7881 16.3602 25.6553L12.1023 22.0523C11.5477 21.6176 10.7273 21.6176 10.3125 22.1916L5.63979 27.0964C5.08521 27.6705 5.08521 28.3911 5.5 28.9724L8.52271 33.147C7.70229 34.7371 7.01479 36.3176 6.60229 37.9053L1.23521 38.4793C0.547708 38.6259 0 39.1999 0 39.9205V46.9871C0 47.7077 0.547708 48.2793 1.23521 48.4187L6.60229 48.9999C7.01479 50.7293 7.70229 52.317 8.52271 53.7582L5.08521 58.2283C4.67271 58.8023 4.67271 59.6695 5.22729 60.097L9.89771 65.0018C10.4523 65.5735 11.1398 65.5735 11.6875 65.1411L15.9523 61.5382C17.4602 62.4053 18.9773 63.1259 20.4852 63.5606L21.0398 69.1764C21.1727 69.897 21.7273 70.4711 22.4148 70.4711H29.1477C29.8352 70.4711 30.3898 69.897 30.5227 69.1764L31.0704 63.5606C32.7273 63.1259 34.2352 62.4053 35.6102 61.5382L39.875 65.1411C40.4227 65.5735 41.25 65.5735 41.6648 65.0018L46.3352 60.097C47.2977 59.9481 47.2977 59.0882 46.8829 58.5069Z" fill="url(#paint0_linear_78_253)"/>
</g>
<path d="M26.125 52.0313C21.5852 52.0313 17.875 48.1402 17.875 43.3843C17.875 38.626 21.5852 34.7372 26.125 34.7372C30.6648 34.7372 34.375 38.626 34.375 43.3843C34.375 48.1402 30.6648 52.0313 26.125 52.0313ZM26.125 31.7059C20.0773 31.7059 15.125 36.899 15.125 43.2354C15.125 49.5813 20.0773 54.7648 26.125 54.7648C32.1727 54.7648 37.125 49.5813 37.125 43.2354C37.125 36.8894 32.1727 31.7059 26.125 31.7059Z" fill="url(#paint1_linear_78_253)"/>
<mask id="mask1_78_253" style="mask-type:luminance" maskUnits="userSpaceOnUse" x="43" y="44" width="45" height="49">
<path d="M43.12 44.9839H88V92.2353H43.12V44.9839Z" fill="white"/>
</mask>
<g mask="url(#mask1_78_253)">
<path d="M85.25 70.4711L81.125 70.9058C80.5704 70.9058 80.0227 71.4871 79.8829 72.0588C79.4773 73.7882 78.9227 75.3759 77.9602 76.9564C77.6875 77.5376 77.6875 78.1117 78.1023 78.693L80.7102 82.147L78.375 84.597L75.0704 81.8612C74.6648 81.4264 73.9773 81.4264 73.4227 81.7147C72.0477 82.7211 70.3977 83.3024 68.75 83.7371C68.1954 83.8764 67.7898 84.3088 67.6477 85.0294L67.2352 89.3529H63.9375L63.5227 85.0294C63.5227 84.4577 62.9681 83.8764 62.4227 83.7371C60.7727 83.3024 59.2579 82.7211 57.75 81.7147C57.1954 81.4264 56.6477 81.4264 56.0931 81.8612L52.7977 84.597L50.6023 82.147L53.2102 78.693C53.625 78.2582 53.625 77.5376 53.3523 76.9564C52.3829 75.5152 51.8352 73.7882 51.4227 72.0588C51.2898 71.4871 50.875 71.0523 50.1875 70.9058L46.0625 70.4711V67.0146L50.1875 66.5823C50.7352 66.5823 51.2898 66.0082 51.4227 65.4269C51.8352 63.6999 52.3829 62.1194 53.3523 60.5293C53.625 59.9481 53.625 59.3764 53.2102 58.7951L50.6023 55.3387L52.9375 52.8911L56.2352 55.6245C56.6477 56.0593 57.3352 56.0593 57.8829 55.7735C59.2579 54.7646 60.9148 54.1834 62.5625 53.7582C63.1102 53.6117 63.5227 53.1769 63.6648 52.4563L64.0704 48.1328H67.375L67.7898 52.4563C67.7898 53.0304 68.3352 53.6117 68.8829 53.7582C70.5398 54.1834 72.0477 54.7646 73.5625 55.7735C74.1102 56.0593 74.6648 56.0593 75.2102 55.6245L78.5079 52.8911L80.8523 55.3387L78.2352 58.7951C77.8204 59.2371 77.8204 59.9481 78.1023 60.5293C79.0625 61.9705 79.6102 63.6999 80.0227 65.4269C80.1648 66.0082 80.5773 66.443 81.2648 66.5823L85.3829 67.0146V70.4711H85.25ZM86.7579 64.4205L82.3602 63.8465C81.9454 62.5518 81.5398 61.2499 80.8523 59.9481L83.6023 56.2058C84.0079 55.6245 84.0079 54.7646 83.4602 54.3323L79.4773 50.1553C78.9227 49.5812 78.2352 49.5812 77.6875 50.0087L74.1102 52.8911C72.875 52.1705 71.6329 51.5964 70.3977 51.301L69.8523 46.6916C69.7102 45.971 69.1648 45.397 68.4773 45.397H62.8352C62.1477 45.397 61.6023 45.971 61.4602 46.6916L60.9148 51.301C59.6727 51.7358 58.4375 52.1705 57.1954 52.8911L53.625 50.0087C53.0704 49.5812 52.25 49.5812 51.8352 50.1553L47.8523 54.3323C47.2977 54.9136 47.2977 55.6245 47.7102 56.2058L50.4602 59.9481C49.7727 61.2499 49.2181 62.5518 48.9454 63.8465L44.5477 64.4205C43.8602 64.567 43.3125 65.1411 43.3125 65.8617V71.7729C43.3125 72.4935 43.8602 73.0676 44.5477 73.2141L48.9454 73.7882C49.3602 75.09 49.7727 76.3823 50.4602 77.677L47.7102 81.4264C47.2977 82.0005 47.2977 82.8676 47.8523 83.3024L51.8352 87.4794C52.3829 88.0606 53.0704 88.0606 53.625 87.6259L57.1954 84.7435C58.4375 85.4641 59.6727 86.0382 60.9148 86.324L61.4602 90.9334C61.6023 91.654 62.1477 92.2353 62.8352 92.2353H68.4773C69.1648 92.2353 69.7102 91.654 69.8523 90.9334L70.3977 86.324C71.6329 85.8989 72.875 85.4641 74.1102 84.7435L77.6875 87.6259C78.2352 88.0606 79.0625 88.0606 79.4773 87.4794L83.4602 83.3024C84.0079 82.7211 84.0079 82.0005 83.6023 81.4264L80.8523 77.677C81.5398 76.3823 82.0852 75.09 82.3602 73.7882L86.7579 73.2141C87.4454 73.0676 88 72.4935 88 71.7729V65.8617C88 65.1411 87.4454 64.4205 86.7579 64.4205Z" fill="url(#paint2_linear_78_253)"/>
</g>
<path d="M65.5851 75.6618C61.7351 75.6618 58.7101 72.4936 58.7101 68.4559C58.7101 64.4206 61.7351 61.25 65.5851 61.25C69.4374 61.25 72.4601 64.4206 72.4601 68.4559C72.4601 72.4936 69.4374 75.6618 65.5851 75.6618ZM65.5851 58.3677C60.2272 58.3677 55.9601 62.8305 55.9601 68.4559C55.9601 74.0741 60.2272 78.5442 65.5851 78.5442C70.9454 78.5442 75.2101 74.0741 75.2101 68.4559C75.2101 62.9794 70.9454 58.3677 65.5851 58.3677Z" fill="url(#paint3_linear_78_253)"/>
<mask id="mask2_78_253" style="mask-type:luminance" maskUnits="userSpaceOnUse" x="45" y="0" width="41" height="42">
<path d="M45.4666 0H85.9466V41.9095H45.4666V0Z" fill="white"/>
</mask>
<g mask="url(#mask2_78_253)">
<path d="M48.3977 19.4559L51.9772 19.0236C52.5227 19.0236 53.0704 18.4495 53.2102 17.8682C53.4852 16.427 54.0397 14.9858 54.8602 13.6912C55.1329 13.1195 55.1329 12.5382 54.7272 11.9642L52.5227 9.08182L54.3125 7.20589L57.0625 9.51658C57.4772 9.94173 58.1647 9.94173 58.7102 9.65589C59.9454 8.79599 61.3204 8.21472 62.6954 7.92648C63.25 7.77996 63.6647 7.35481 63.7977 6.62461L64.2102 2.88236H66.8204L67.2352 6.63422C67.2352 7.20589 67.7897 7.77996 68.3352 7.92648C69.7102 8.21472 71.0852 8.79599 72.3204 9.65589C72.875 9.94173 73.4227 9.94173 73.9773 9.51658L76.7273 7.20589L78.5079 9.08182L76.3125 11.9642C75.8977 12.3989 75.8977 13.1195 76.1727 13.6912C77 14.9931 77.5477 16.4342 77.8273 17.8754C77.9602 18.4495 78.375 18.8842 79.0625 19.0236L82.6398 19.4559V22.1989L79.0625 22.6265C78.5148 22.6265 77.9602 23.2078 77.8273 23.7794C77.5477 25.2206 77 26.6618 76.1727 27.9637C75.8977 28.5377 75.8977 29.1118 76.3125 29.6931L78.5079 32.5754L76.7273 34.449L73.9773 32.1407C73.4227 31.7059 72.875 31.7059 72.3204 31.9942C71.0852 32.8613 69.7102 33.4353 68.3352 33.7212C67.7897 33.8677 67.375 34.3024 67.2352 35.023L66.8204 38.7653H64.2102L63.7977 35.023C63.7977 34.4418 63.25 33.8677 62.6954 33.7212C61.3204 33.4353 59.9454 32.8613 58.7102 31.9942C58.1647 31.7059 57.6102 31.7059 57.0625 32.1407L54.3125 34.4418L52.5227 32.5658L54.7181 29.6835C55.1329 29.2583 55.1329 28.5377 54.8602 27.9565C54.0306 26.6618 53.4852 25.2206 53.2102 23.7794C53.0704 23.2078 52.6556 22.773 51.9681 22.6265L48.3977 22.1917V19.4559ZM46.8829 24.9348L50.7352 25.3695C51.0079 26.5225 51.4227 27.5313 51.9772 28.677L49.6329 31.7059C49.2272 32.28 49.2272 33.1471 49.7727 33.5818L53.3522 37.3241C53.8977 37.9054 54.5852 37.9054 55.1329 37.4706L58.1647 35.023C59.125 35.5971 60.2272 36.0294 61.3272 36.3177L61.7352 40.353C61.875 41.0736 62.4227 41.6476 63.1102 41.6476H68.2022C68.8897 41.6476 69.4375 41.0736 69.5772 40.353L69.9852 36.3177C71.0852 36.0294 72.0477 35.5971 73.1477 35.023L76.1727 37.4706C76.7273 37.9054 77.5477 37.9054 77.9602 37.3241L81.5397 33.5818C82.0852 33.0006 82.0852 32.28 81.6727 31.7059L79.3352 28.5377C79.8898 27.5313 80.2977 26.376 80.5773 25.2206L84.4227 24.7883C85.1102 24.6489 85.6647 24.0677 85.6647 23.3471V18.0147C85.6647 17.2941 85.1102 16.7129 84.4227 16.5735L80.5773 16.1412C80.2977 14.9858 79.8898 13.9794 79.3352 12.8241L81.6727 9.65589C82.0852 9.08182 82.0852 8.21471 81.5397 7.77996L77.9602 4.0377C77.4148 3.45643 76.7273 3.45643 76.1727 3.89118L72.875 6.63422C71.9147 6.05295 70.8125 5.61819 69.7102 5.33236L69.2977 1.29466C69.2977 0.574069 68.75 0 68.0625 0H62.9772C62.2897 0 61.7352 0.574069 61.6022 1.29466L61.1875 5.33236C60.0852 5.61819 59.125 6.05295 58.0227 6.63422L55 4.17701C54.4454 3.74226 53.625 3.74226 53.2102 4.32353L49.6329 8.0754C49.0852 8.64707 49.0852 9.36766 49.5 9.94173L51.8352 13.1195C51.2897 14.1259 50.875 15.2813 50.6022 16.427L46.75 16.8618C46.0625 17.0083 45.5079 17.5824 45.5079 18.303V23.6401C45.6477 24.2142 46.1954 24.7883 46.8829 24.9348Z" fill="url(#paint4_linear_78_253)"/>
</g>
<path d="M65.5852 14.4118C68.8829 14.4118 71.5 17.1476 71.5 20.6112C71.5 24.0677 68.8829 26.8107 65.5852 26.8107C62.2898 26.8107 59.6727 24.0677 59.6727 20.6112C59.6727 17.1476 62.2898 14.4118 65.5852 14.4118ZM65.5852 29.5441C70.3977 29.5441 74.25 25.5088 74.25 20.4647C74.25 15.4206 70.2579 11.5294 65.5852 11.5294C60.9148 11.5294 56.9227 15.5671 56.9227 20.6112C56.9227 25.6554 60.7727 29.5441 65.5852 29.5441Z" fill="url(#paint5_linear_78_253)"/>
<defs>
<linearGradient id="paint0_linear_78_253" x1="25.9887" y1="16.7224" x2="25.9887" y2="70.4711" gradientUnits="userSpaceOnUse">
<stop stop-color="#17A191"/>
<stop offset="1" stop-color="#29B6C8"/>
</linearGradient>
<linearGradient id="paint1_linear_78_253" x1="26.125" y1="31.7059" x2="26.125" y2="54.7648" gradientUnits="userSpaceOnUse">
<stop stop-color="#17A191"/>
<stop offset="1" stop-color="#29B6C8"/>
</linearGradient>
<linearGradient id="paint2_linear_78_253" x1="65.6563" y1="45.397" x2="65.6563" y2="92.2353" gradientUnits="userSpaceOnUse">
<stop stop-color="#17A191"/>
<stop offset="1" stop-color="#29B6C8"/>
</linearGradient>
<linearGradient id="paint3_linear_78_253" x1="65.5851" y1="58.3677" x2="65.5851" y2="78.5442" gradientUnits="userSpaceOnUse">
<stop stop-color="#17A191"/>
<stop offset="1" stop-color="#29B6C8"/>
</linearGradient>
<linearGradient id="paint4_linear_78_253" x1="65.5863" y1="0" x2="65.5863" y2="41.6476" gradientUnits="userSpaceOnUse">
<stop stop-color="#17A191"/>
<stop offset="1" stop-color="#29B6C8"/>
</linearGradient>
<linearGradient id="paint5_linear_78_253" x1="65.5863" y1="11.5294" x2="65.5863" y2="29.5441" gradientUnits="userSpaceOnUse">
<stop stop-color="#17A191"/>
<stop offset="1" stop-color="#29B6C8"/>
</linearGradient>
</defs>
</svg>
