<svg width="52" height="53" viewBox="0 0 52 53" fill="none" xmlns="http://www.w3.org/2000/svg">
<mask id="mask0_101_340" style="mask-type:luminance" maskUnits="userSpaceOnUse" x="0" y="40" width="27" height="6">
<path d="M0 40.1346H26.6863V45.4783H0V40.1346Z" fill="white"/>
</mask>
<g mask="url(#mask0_101_340)">
<path d="M26.5916 40.3336H0.166868V44.2197H0.126349C0.0846016 44.2197 0.0625 44.3351 0.0625 44.3671C0.0625 44.8852 6.07163 45.2241 13.6033 45.2241C21.135 45.2241 26.6591 44.8705 26.6591 44.3523C26.6591 44.3216 26.6382 44.2197 26.6014 44.2197H26.5916V40.3336Z" fill="black"/>
</g>
<mask id="mask1_101_340" style="mask-type:luminance" maskUnits="userSpaceOnUse" x="0" y="40" width="28" height="6">
<path d="M0 40.1346H27.0006V45.4783H0V40.1346Z" fill="white"/>
</mask>
<g mask="url(#mask1_101_340)">
<path d="M0.146115 44.2823C0.135064 44.3032 0.125241 44.3486 0.125241 44.3671C0.125241 44.399 0.23452 44.6961 4.01264 44.927C6.48063 45.078 9.88671 45.1615 13.6034 45.1615C17.2723 45.1615 20.5912 45.0755 22.9511 44.9196C26.4935 44.6863 26.5966 44.3867 26.5966 44.3523C26.5966 44.3376 26.588 44.2995 26.5794 44.2811C26.5512 44.275 26.5291 44.2492 26.5291 44.2197V40.3962H0.229609V44.2197C0.229609 44.2541 0.201369 44.2823 0.166989 44.2823H0.146115ZM13.6034 45.2867C9.88425 45.2867 6.47572 45.2032 4.00527 45.0522C-2.9977e-07 44.8066 0 44.4874 0 44.3671C0 44.3646 0.00859484 44.1829 0.104368 44.1596V40.3336C0.104368 40.2992 0.132609 40.2709 0.166989 40.2709H26.5917C26.6261 40.2709 26.6543 40.2992 26.6543 40.3336V44.1755C26.7083 44.2185 26.7219 44.3229 26.7219 44.3523C26.7219 44.4739 26.7219 44.7968 22.9597 45.0448C20.5973 45.2008 17.2747 45.2867 13.6034 45.2867Z" fill="url(#paint0_linear_101_340)"/>
</g>
<mask id="mask2_101_340" style="mask-type:luminance" maskUnits="userSpaceOnUse" x="0" y="39" width="27" height="3">
<path d="M0 39.1917H26.6863V41.392H0V39.1917Z" fill="white"/>
</mask>
<g mask="url(#mask2_101_340)">
<path d="M26.6591 40.3016C26.6591 40.8198 21.135 41.1317 13.6033 41.1317C6.07163 41.1317 0.0625 40.8198 0.0625 40.3016C0.0625 39.7835 6.07163 39.2555 13.6033 39.2555C21.135 39.2555 26.6591 39.7835 26.6591 40.3016Z" fill="url(#paint1_linear_101_340)"/>
</g>
<path d="M26.8421 35.6947H0.417356V39.5809H0.376837C0.33509 39.5809 0.312988 39.6975 0.312988 39.7282C0.312988 40.2464 6.32212 40.5853 13.8538 40.5853C21.3855 40.5853 26.9096 40.2329 26.9096 39.7147C26.9096 39.684 26.8887 39.5809 26.8519 39.5809H26.8421V35.6947Z" fill="black"/>
<mask id="mask3_101_340" style="mask-type:luminance" maskUnits="userSpaceOnUse" x="0" y="35" width="28" height="6">
<path d="M0 35.4197H27.0006V40.7633H0V35.4197Z" fill="white"/>
</mask>
<g mask="url(#mask3_101_340)">
<path d="M0.395375 39.6435C0.385553 39.6656 0.37573 39.711 0.37573 39.7282C0.37573 39.7614 0.485009 40.0573 4.26313 40.2881C6.73112 40.4391 10.1372 40.5226 13.8539 40.5226C17.5215 40.5226 20.8417 40.4367 23.2016 40.282C26.744 40.0487 26.8471 39.7479 26.8471 39.7147C26.8471 39.6987 26.8385 39.6619 26.8299 39.6423C26.8017 39.6361 26.7796 39.6116 26.7796 39.5809V35.7573H0.480098V39.5809C0.480098 39.6152 0.451857 39.6435 0.417477 39.6435H0.395375ZM13.8539 40.6479C10.1347 40.6479 6.72621 40.5644 4.25576 40.4134C0.250489 40.169 0.250488 39.8485 0.250488 39.7282C0.250488 39.7258 0.259083 39.5453 0.354856 39.5207V35.6947C0.354856 35.6603 0.383097 35.6321 0.417477 35.6321H26.8422C26.8766 35.6321 26.9048 35.6603 26.9048 35.6947V39.5379C26.9588 39.5809 26.9723 39.684 26.9723 39.7147C26.9723 39.8363 26.9723 40.1592 23.2102 40.4072C20.8478 40.5619 17.5252 40.6479 13.8539 40.6479Z" fill="url(#paint2_linear_101_340)"/>
</g>
<path d="M26.9096 35.6641C26.9096 36.1822 21.3855 36.4929 13.8538 36.4929C6.32212 36.4929 0.312988 36.1822 0.312988 35.6641C0.312988 35.1459 6.32212 34.6179 13.8538 34.6179C21.3855 34.6179 26.9096 35.1459 26.9096 35.6641Z" fill="url(#paint3_linear_101_340)"/>
<mask id="mask4_101_340" style="mask-type:luminance" maskUnits="userSpaceOnUse" x="0" y="30" width="28" height="7">
<path d="M0 30.7047H27.0006V36.0483H0V30.7047Z" fill="white"/>
</mask>
<g mask="url(#mask4_101_340)">
<path d="M26.717 30.9318H0.292293V34.9432H0.303343C0.261596 34.9432 0.240723 35.007 0.240723 35.0377C0.240723 35.5559 6.24863 35.8677 13.7803 35.8677C21.3132 35.8677 26.8361 35.5546 26.8361 35.0365C26.8361 35.0058 26.8165 34.9432 26.7784 34.9432H26.717V30.9318Z" fill="black"/>
<path d="M0.313043 35.0046C0.308131 35.012 0.30322 35.0292 0.30322 35.0378C0.30322 35.0697 0.412499 35.3632 4.18939 35.5842C6.62668 35.7278 10.0328 35.8052 13.7802 35.8052C17.546 35.8052 20.779 35.7291 23.1291 35.5842C26.6715 35.3656 26.7734 35.0697 26.7734 35.0365C26.7734 35.028 26.7697 35.0144 26.7648 35.0059H26.7169C26.6825 35.0059 26.6543 34.9776 26.6543 34.9432V30.9944H0.35479V34.9076C0.362157 34.9174 0.365841 34.9297 0.365841 34.9432C0.365841 34.9739 0.342511 34.9997 0.313043 35.0046ZM13.7802 35.9304C10.0303 35.9304 6.62177 35.8518 4.18202 35.7094C0.177979 35.4749 0.177979 35.1679 0.177979 35.0378C0.177979 35.0009 0.193941 34.9445 0.229549 34.9101V30.9318C0.229549 30.8962 0.257789 30.8692 0.292169 30.8692H26.7169C26.7513 30.8692 26.7795 30.8962 26.7795 30.9318V34.8806C26.8569 34.8818 26.8986 34.9715 26.8986 35.0365C26.8986 35.1692 26.8986 35.4773 23.1365 35.7094C20.7839 35.8543 17.5485 35.9304 13.7802 35.9304Z" fill="url(#paint4_linear_101_340)"/>
</g>
<mask id="mask5_101_340" style="mask-type:luminance" maskUnits="userSpaceOnUse" x="0" y="29" width="28" height="3">
<path d="M0 29.7617H27.0006V31.962H0V29.7617Z" fill="white"/>
</mask>
<g mask="url(#mask5_101_340)">
<path d="M26.8361 30.9208C26.8361 31.4389 21.3132 31.7508 13.7803 31.7508C6.24863 31.7508 0.240723 31.4389 0.240723 30.9208C0.240723 30.4026 6.24863 29.8746 13.7803 29.8746C21.3132 29.8746 26.8361 30.4026 26.8361 30.9208Z" fill="url(#paint5_linear_101_340)"/>
</g>
<path d="M26.9674 26.0425H0.417457V30.1166H0.400267C0.35852 30.1166 0.337646 30.1669 0.337646 30.1976C0.337646 30.7158 6.34555 31.0215 13.8772 31.0215C21.4101 31.0215 26.933 30.7182 26.933 30.2001C26.933 30.1694 26.9134 30.1166 26.8753 30.1166H26.9674V26.0425Z" fill="black"/>
<mask id="mask6_101_340" style="mask-type:luminance" maskUnits="userSpaceOnUse" x="0" y="25" width="28" height="7">
<path d="M0 25.6754H27.3149V31.3334H0V25.6754Z" fill="white"/>
</mask>
<g mask="url(#mask6_101_340)">
<path d="M0.406527 30.1792C0.402844 30.1841 0.400388 30.1927 0.400388 30.1976C0.400388 30.2308 0.509667 30.523 4.28656 30.7415C6.71526 30.8815 10.1213 30.9589 13.8773 30.9589C17.6555 30.9589 20.8884 30.884 23.2263 30.7428C26.7686 30.5279 26.8705 30.2332 26.8705 30.2001C26.8705 30.1939 26.8681 30.1841 26.8644 30.178C26.8349 30.1731 26.8128 30.1473 26.8128 30.1166C26.8128 30.0822 26.8411 30.0539 26.8754 30.0539H26.9049V26.1052H0.480199V30.1166C0.480199 30.151 0.451958 30.1792 0.417578 30.1792H0.406527ZM13.8773 31.0841C10.1189 31.0841 6.71035 31.0068 4.27919 30.8668C0.275146 30.6347 0.275146 30.3278 0.275146 30.1976C0.275146 30.1497 0.302159 30.0871 0.354957 30.0638V26.0425C0.354957 26.0069 0.383198 25.9799 0.417578 25.9799H26.9675C27.0019 25.9799 27.0302 26.0069 27.0302 26.0425V30.1166C27.0302 30.1424 27.0154 30.1645 26.9933 30.1731C26.9945 30.1829 26.9958 30.1915 26.9958 30.2001C26.9958 30.3327 26.9958 30.6396 23.2336 30.868C20.8933 31.0092 17.6579 31.0841 13.8773 31.0841Z" fill="url(#paint6_linear_101_340)"/>
</g>
<path d="M26.933 26.0671C26.933 26.5852 21.4101 26.8971 13.8772 26.8971C6.34555 26.8971 0.337646 26.5852 0.337646 26.0671C0.337646 25.5489 6.34555 25.0209 13.8772 25.0209C21.4101 25.0209 26.933 25.5489 26.933 26.0671Z" fill="url(#paint7_linear_101_340)"/>
<path d="M26.8422 21.2158H0.417499V25.102H0.351195C0.309448 25.102 0.288574 25.2051 0.288574 25.2358C0.288574 25.754 6.29648 26.0867 13.8282 26.0867C21.3598 26.0867 26.884 25.7429 26.884 25.2248C26.884 25.1953 26.8643 25.102 26.8263 25.102H26.8422V21.2158Z" fill="black"/>
<mask id="mask7_101_340" style="mask-type:luminance" maskUnits="userSpaceOnUse" x="0" y="20" width="28" height="7">
<path d="M0 20.9604H27.0006V26.3041H0V20.9604Z" fill="white"/>
</mask>
<g mask="url(#mask7_101_340)">
<path d="M0.368262 25.1646C0.359666 25.183 0.351072 25.2199 0.351072 25.2358C0.351072 25.269 0.459123 25.5637 4.23724 25.792C6.69787 25.9418 10.1039 26.0229 13.828 26.0229C17.5067 26.0229 20.8268 25.9394 23.1769 25.7871C26.7193 25.5575 26.8212 25.2579 26.8212 25.2248C26.8212 25.21 26.8126 25.1769 26.8053 25.1609C26.7807 25.1523 26.7635 25.129 26.7635 25.102C26.7635 25.086 26.7696 25.0701 26.7795 25.059V21.2784H0.479997V25.102C0.479997 25.1364 0.451755 25.1646 0.417376 25.1646H0.368262ZM13.828 26.1493C10.1015 26.1493 6.69295 26.0671 4.22987 25.9173C0.22583 25.6754 0.22583 25.3562 0.22583 25.2358C0.22583 25.2039 0.246704 25.0394 0.351072 25.0394H0.354755V21.2158C0.354755 21.1814 0.382995 21.1532 0.417376 21.1532H26.8421C26.8765 21.1532 26.9047 21.1814 26.9047 21.2158V25.0848C26.9379 25.1315 26.9465 25.2014 26.9465 25.2248C26.9465 25.3463 26.9465 25.6693 23.1843 25.9124C20.833 26.0646 17.5104 26.1493 13.828 26.1493Z" fill="url(#paint8_linear_101_340)"/>
</g>
<path d="M26.884 21.1581C26.884 21.6763 21.3598 21.9869 13.8282 21.9869C6.29648 21.9869 0.288574 21.6763 0.288574 21.1581C0.288574 20.64 6.29648 20.112 13.8282 20.112C21.3598 20.112 26.884 20.64 26.884 21.1581Z" fill="url(#paint9_linear_101_340)"/>
<mask id="mask8_101_340" style="mask-type:luminance" maskUnits="userSpaceOnUse" x="0" y="16" width="28" height="6">
<path d="M0 16.2455H27.0006V21.5891H0V16.2455Z" fill="white"/>
</mask>
<g mask="url(#mask8_101_340)">
<path d="M26.717 16.3265H0.166992V20.4644H0.25417C0.212423 20.4644 0.191549 20.4865 0.191549 20.5172C0.191549 21.0354 6.19946 21.3276 13.7311 21.3276C21.2628 21.3276 26.7869 21.0452 26.7869 20.527C26.7869 20.4963 26.7673 20.4644 26.7292 20.4644H26.717V16.3265Z" fill="black"/>
<path d="M0.255274 20.527C0.282288 20.5872 0.605214 20.8549 4.14021 21.0538C6.5505 21.1901 9.95658 21.265 13.731 21.265C17.5361 21.265 20.7691 21.1938 23.0799 21.0587C26.5486 20.8561 26.7242 20.5798 26.7242 20.527H26.7168C26.6824 20.527 26.6542 20.4988 26.6542 20.4644V16.3892H0.229489V20.4006H0.254047C0.288427 20.4006 0.316667 20.4288 0.316667 20.4644C0.316667 20.4976 0.289655 20.5258 0.255274 20.527ZM13.731 21.3902C9.95412 21.3902 6.54559 21.3153 4.13285 21.179C0.128805 20.9531 0.128805 20.6474 0.128805 20.5172C0.128805 20.516 0.128805 20.5148 0.128805 20.5135C0.114071 20.5013 0.104248 20.4841 0.104248 20.4644V16.3265C0.104248 16.2922 0.132489 16.2639 0.166869 16.2639H26.7168C26.7512 16.2639 26.7794 16.2922 26.7794 16.3265V20.4128C26.8212 20.4325 26.8494 20.4755 26.8494 20.527C26.8494 20.6584 26.8494 20.9642 23.0873 21.1839C20.774 21.319 17.5386 21.3902 13.731 21.3902Z" fill="url(#paint10_linear_101_340)"/>
</g>
<mask id="mask9_101_340" style="mask-type:luminance" maskUnits="userSpaceOnUse" x="0" y="15" width="28" height="3">
<path d="M0 15.3025H27.0006V17.1885H0V15.3025Z" fill="white"/>
</mask>
<g mask="url(#mask9_101_340)">
<path d="M26.787 16.3585C26.787 16.8766 21.2629 17.1885 13.7312 17.1885C6.19956 17.1885 0.19165 16.8766 0.19165 16.3585C0.19165 15.8403 6.19956 15.3123 13.7312 15.3123C21.2629 15.3123 26.787 15.8403 26.787 16.3585Z" fill="black"/>
<path d="M26.787 16.3585C26.787 16.8766 21.2629 17.1885 13.7312 17.1885C6.19956 17.1885 0.19165 16.8766 0.19165 16.3585C0.19165 15.8403 6.19956 15.3123 13.7312 15.3123C21.2629 15.3123 26.787 15.8403 26.787 16.3585Z" fill="url(#paint11_linear_101_340)"/>
</g>
<path d="M51.0408 14.6345C51.0408 11.8902 49.9173 7.80393 44.5099 8.05196C44.8144 4.57589 41.854 -0.199246 35.4065 0.236643C32.2939 0.447835 31.6554 2.89127 31.3178 2.76848C26.9773 1.19683 21.6815 4.89391 22.8615 10.4819C20.45 10.7483 18.4498 12.7522 18.5063 15.4596C18.5431 17.2179 19.5414 18.5698 21.1609 18.5698H47.4002C49.3574 18.5698 50.9893 16.8913 51.0384 14.7659C51.0396 14.7217 51.0408 14.6775 51.0408 14.6345Z" fill="url(#paint12_linear_101_340)"/>
<path d="M29.217 2.46522C27.6883 2.46522 26.1609 3.02758 24.9404 4.0909C23.1342 5.66256 22.3987 7.98812 22.923 10.4696C22.9267 10.4868 22.923 10.504 22.9119 10.5187C22.9021 10.5335 22.8862 10.5421 22.8677 10.5445C20.3654 10.8208 18.5162 12.9327 18.569 15.4572C18.6071 17.2818 19.6483 18.5072 21.161 18.5072H47.4003C49.3232 18.5072 50.928 16.8287 50.9759 14.7647C50.9771 14.7205 50.9783 14.6775 50.9783 14.6345C50.9783 13.3931 50.7401 11.0835 49.1513 9.56346C48.0499 8.51119 46.4893 8.0225 44.5124 8.11459C44.494 8.11459 44.4768 8.10845 44.4645 8.09494C44.4522 8.08266 44.4461 8.06425 44.4473 8.04583C44.6094 6.18808 43.8211 4.12528 42.3882 2.66167C41.2009 1.44855 39.0251 0.0537053 35.4103 0.299277C33.183 0.450303 32.2584 1.73464 31.7611 2.4247C31.5499 2.71693 31.4345 2.87778 31.297 2.82866C30.6229 2.58432 29.9193 2.46522 29.217 2.46522ZM47.4003 18.6324H21.161C19.5746 18.6324 18.4831 17.3579 18.4438 15.4609C18.4168 14.1655 18.8674 12.9413 19.7122 12.013C20.5103 11.1363 21.5994 10.5752 22.7867 10.4279C22.2796 7.92673 23.0323 5.5852 24.8581 3.99636C26.6753 2.41365 29.1581 1.92005 31.34 2.71079C31.3878 2.72798 31.5389 2.51924 31.6592 2.35103C32.1319 1.69412 33.1167 0.328745 35.4017 0.174035C39.0656 -0.073992 41.2709 1.34296 42.4779 2.5745C43.9169 4.04424 44.7175 6.11072 44.5775 7.98566C46.5568 7.90831 48.1248 8.40805 49.2372 9.4726C50.8604 11.0246 51.1023 13.3723 51.1023 14.6345C51.1023 14.6787 51.1023 14.7229 51.1023 14.7671C51.0778 15.8071 50.6787 16.7808 49.9801 17.5077C49.2826 18.2334 48.3667 18.6324 47.4003 18.6324Z" fill="black"/>
<path d="M51.8021 15.1121C51.8021 12.4378 50.2181 7.19121 44.9236 7.4331C43.7731 2.16068 41.3432 0.619718 37.0174 0.580426C32.7936 0.542363 32.0164 3.63902 31.691 3.50518C27.1455 1.63393 22.9315 5.86881 23.8548 10.7827C21.4936 11.0418 19.6506 13.1979 19.6506 15.8194C19.6506 15.8316 19.6506 15.8427 19.6506 15.855C19.6617 17.5691 20.9608 18.9467 22.5459 18.9467H48.2388C50.1543 18.9467 51.7517 17.3112 51.8008 15.2398C51.8021 15.1968 51.8021 15.1551 51.8021 15.1121Z" fill="black"/>
<mask id="mask10_101_340" style="mask-type:luminance" maskUnits="userSpaceOnUse" x="19" y="0" width="33" height="20">
<path d="M19.4568 0.214539H51.8648V19.0744H19.4568V0.214539Z" fill="white"/>
</mask>
<g mask="url(#mask10_101_340)">
<path d="M29.4785 3.11597C28.2703 3.11597 27.1051 3.52976 26.1117 4.33891C24.2908 5.82217 23.4497 8.2877 23.9163 10.7717C23.92 10.7888 23.9163 10.806 23.9053 10.8208C23.8955 10.8343 23.8795 10.8429 23.8623 10.8453C21.4962 11.1056 19.7134 13.2433 19.7134 15.8194V15.855C19.7244 17.5249 20.9953 18.8841 22.546 18.8841H48.239C50.1213 18.8841 51.6905 17.2486 51.7383 15.2386C51.7396 15.1969 51.7396 15.1539 51.7396 15.1121C51.7396 13.2384 50.998 10.6403 49.3416 9.05634C48.1751 7.94022 46.6894 7.4147 44.9262 7.49573C44.8955 7.49696 44.8685 7.47732 44.8624 7.44662C43.7904 2.52905 41.6638 0.684811 37.0176 0.643064C36.9918 0.643064 36.9672 0.643064 36.9414 0.643064C33.8141 0.643064 32.6096 2.41241 32.0926 3.17245C31.8925 3.46714 31.7918 3.61448 31.6666 3.56291C30.9397 3.26331 30.2017 3.11597 29.4785 3.11597ZM48.239 19.0094H22.546C20.9265 19.0094 19.5992 17.5949 19.5881 15.855V15.8194C19.5881 13.204 21.3857 11.0271 23.7813 10.7287C23.3331 8.2214 24.1926 5.74113 26.0332 4.24191C27.6564 2.91951 29.7278 2.62974 31.7145 3.44749C31.7574 3.44258 31.8802 3.26086 31.9895 3.10123C32.5175 2.32523 33.7478 0.517822 36.9414 0.517822C36.9672 0.517822 36.993 0.517822 37.0188 0.517822C39.3382 0.538696 40.9848 1.00897 42.2016 1.99616C43.5191 3.06685 44.4007 4.7748 44.9729 7.36927C46.7483 7.29805 48.2476 7.83708 49.4275 8.96548C51.1109 10.5752 51.8648 13.2126 51.8648 15.1121C51.8648 15.1551 51.8648 15.1981 51.8636 15.2423C51.839 16.2565 51.4498 17.2044 50.7647 17.9129C50.082 18.6201 49.1856 19.0094 48.239 19.0094Z" fill="url(#paint13_linear_101_340)"/>
</g>
<path d="M16.7443 49.0341C17.5092 48.4079 18.3135 47.8247 19.1361 47.2672C20.8073 46.1376 22.568 45.1271 24.3472 44.1485C25.2828 43.634 26.2553 43.1674 27.2142 42.6886C28.1793 42.2072 29.1469 41.7296 30.1156 41.252C30.9997 40.8161 31.885 40.379 32.7678 39.9406C34.7741 33.1493 36.9548 25.4494 36.5214 25.4494L3.61357 24.52C2.83879 24.52 2.31941 25.1498 2.45447 25.9259L6.44255 48.6854C6.57884 49.4614 7.31924 50.0925 8.09402 50.0925H15.417C15.8492 49.7279 16.3072 49.3914 16.7443 49.0341Z" fill="url(#paint14_linear_101_340)"/>
<path d="M36.5203 25.5121C36.5203 25.5121 36.5203 25.5121 36.5215 25.5121H36.5203ZM3.61125 24.5826C3.26131 24.5826 2.95435 24.7176 2.74684 24.9644C2.53565 25.2174 2.45338 25.5538 2.51723 25.9148L6.50408 48.6756C6.63546 49.4221 7.34885 50.0299 8.09416 50.0299H15.395C15.6332 49.8286 15.8825 49.6333 16.1243 49.4455C16.3159 49.2957 16.5136 49.141 16.7051 48.985C17.4111 48.4079 18.1957 47.8284 19.1019 47.2157C20.8663 46.0222 22.729 44.9675 24.3166 44.0945C25.0423 43.6942 25.8011 43.3197 26.5353 42.9562C26.7527 42.8482 26.97 42.7414 27.1861 42.6333C28.1377 42.1581 29.1016 41.6817 30.0875 41.1955C30.8525 40.8185 31.8029 40.3495 32.7151 39.8964C36.2403 27.9653 36.6111 25.7454 36.5043 25.5121L3.61125 24.5826ZM15.4171 50.1552H8.09416C7.29114 50.1552 6.5225 49.5007 6.3813 48.6965L2.39322 25.9369C2.32323 25.5391 2.41532 25.1658 2.65107 24.8846C2.8819 24.6084 3.22448 24.4573 3.61371 24.4573L36.5227 25.3868C36.5522 25.3868 36.5804 25.4016 36.6001 25.4273C36.6922 25.5514 36.9734 25.9283 32.8281 39.9578C32.8232 39.975 32.8109 39.9885 32.795 39.9971C31.8753 40.4539 30.9151 40.9278 30.1428 41.3085C29.1568 41.7947 28.193 42.2699 27.2426 42.745C27.0253 42.8531 26.8079 42.9611 26.5906 43.068C25.8576 43.4314 25.1012 43.8059 24.378 44.2037C22.7904 45.0755 20.9326 46.129 19.1719 47.3188C18.2682 47.9303 17.4873 48.5074 16.7837 49.0832C16.5922 49.2392 16.3932 49.3939 16.2017 49.5437C15.9549 49.7365 15.6995 49.9354 15.4576 50.1404C15.4466 50.1503 15.4318 50.1552 15.4171 50.1552Z" fill="black"/>
<path d="M37.4609 24.5998H4.29643C3.56339 24.5998 3.07471 25.1928 3.2024 25.9259L7.19049 48.6854C7.31941 49.4185 8.01683 50.0128 8.74864 50.0128H41.9131C42.6449 50.0128 43.1348 49.4185 43.0071 48.6854L39.019 25.9259C38.8901 25.1928 38.1927 24.5998 37.4609 24.5998Z" fill="black"/>
<path d="M4.29623 24.6625C3.9647 24.6625 3.67493 24.7889 3.48093 25.021C3.28202 25.258 3.20466 25.576 3.26483 25.9149L7.25168 48.6757C7.37569 49.378 8.0461 49.9502 8.74844 49.9502H41.9129C42.2444 49.9502 42.5342 49.8225 42.7282 49.5904C42.9271 49.3535 43.0032 49.0367 42.9443 48.6966L38.9562 25.937C38.8334 25.2334 38.1618 24.6625 37.4606 24.6625H4.29623ZM41.9129 50.0754H8.74844C7.98839 50.0754 7.26273 49.4566 7.12889 48.6966L3.14081 25.937C3.07451 25.56 3.16169 25.2064 3.38393 24.94C3.60249 24.6797 3.92664 24.536 4.29623 24.536H37.4606C38.2207 24.536 38.9464 25.1549 39.0802 25.9149L43.0683 48.6757C43.1334 49.0514 43.0474 49.405 42.8239 49.6715C42.6054 49.9318 42.2824 50.0754 41.9129 50.0754Z" fill="url(#paint15_linear_101_340)"/>
<path d="M36.6431 25.4765H5.29957C4.60829 25.4765 4.14538 26.029 4.26694 26.7117L8.03523 47.8996C8.15679 48.5823 8.81615 49.1349 9.50744 49.1349H40.8509C41.5435 49.1349 42.0051 48.5823 41.8848 47.8996L38.1153 26.7117C37.9937 26.029 37.3356 25.4765 36.6431 25.4765Z" fill="black"/>
<path d="M5.2994 25.5391C4.98384 25.5391 4.7088 25.6595 4.52585 25.878C4.3429 26.0978 4.27291 26.3888 4.32816 26.7007L8.09769 47.8886C8.2131 48.5418 8.84545 49.0722 9.50727 49.0722H40.8508C41.1676 49.0722 41.4414 48.9519 41.6243 48.7333C41.8073 48.5148 41.8785 48.2226 41.822 47.9107L38.0537 26.7228C37.9383 26.0696 37.3047 25.5391 36.6429 25.5391H5.2994ZM40.8508 49.1975H9.50727C8.78774 49.1975 8.10014 48.6204 7.97367 47.9107L4.20538 26.7228C4.14276 26.3741 4.22257 26.045 4.43008 25.7982C4.63758 25.5502 4.94578 25.4139 5.2994 25.4139H36.6429C37.3624 25.4139 38.0513 25.991 38.1765 26.7007L41.946 47.8886C42.0074 48.2373 41.9276 48.5664 41.7213 48.8132C41.5138 49.0612 41.2044 49.1975 40.8508 49.1975Z" fill="url(#paint16_linear_101_340)"/>
<mask id="mask11_101_340" style="mask-type:luminance" maskUnits="userSpaceOnUse" x="7" y="49" width="44" height="4">
<path d="M7.51196 49.879H50.8897V52.1505H7.51196V49.879Z" fill="white"/>
</mask>
<g mask="url(#mask11_101_340)">
<path d="M49.5957 50.143H8.63565C8.09048 50.143 7.646 50.5678 7.646 51.1142C7.646 51.6606 8.09048 52.0855 8.63565 52.0855H49.5957C50.1421 52.0855 50.5854 51.6619 50.5854 51.1142C50.5854 50.5666 50.1421 50.143 49.5957 50.143Z" fill="black"/>
<path d="M8.63553 50.2056C8.11614 50.2056 7.70849 50.6047 7.70849 51.1142C7.70849 51.6238 8.11614 52.0229 8.63553 52.0229H49.5956C50.115 52.0229 50.5226 51.6238 50.5226 51.1142C50.5226 50.6047 50.115 50.2056 49.5956 50.2056H8.63553ZM49.5956 52.1481H8.63553C8.04493 52.1481 7.58325 51.6938 7.58325 51.1142C7.58325 50.5347 8.04493 50.0804 8.63553 50.0804H49.5956C50.185 50.0804 50.6479 50.5347 50.6479 51.1142C50.6479 51.6938 50.185 52.1481 49.5956 52.1481Z" fill="url(#paint17_linear_101_340)"/>
</g>
<path d="M29.8332 14.3202C29.8332 14.0992 29.7547 13.9261 29.5975 13.8033C29.4416 13.6793 29.1665 13.5516 28.7724 13.419C28.3795 13.2864 28.0578 13.1587 27.8073 13.0347C26.9944 12.6356 26.588 12.0867 26.588 11.3869C26.588 11.0394 26.6887 10.7324 26.8913 10.466C27.0939 10.1995 27.3812 9.99325 27.752 9.84468C28.1216 9.69734 28.5391 9.62244 29.0008 9.62244C29.4526 9.62244 29.8566 9.70348 30.2139 9.86432C30.5724 10.0252 30.8499 10.2548 31.0488 10.5519C31.2465 10.8503 31.346 11.1904 31.346 11.5723H29.8369C29.8369 11.3169 29.7584 11.118 29.6024 10.978C29.4452 10.8368 29.2341 10.7656 28.9664 10.7656C28.6963 10.7656 28.4826 10.8257 28.3267 10.9448C28.1695 11.0639 28.0921 11.2162 28.0921 11.4004C28.0921 11.5612 28.1781 11.7073 28.35 11.8375C28.5231 11.9689 28.8264 12.1039 29.2598 12.2439C29.6933 12.3827 30.0494 12.5337 30.3281 12.6945C31.0071 13.085 31.346 13.6253 31.346 14.3116C31.346 14.8617 31.1385 15.2927 30.7247 15.6058C30.3109 15.9201 29.7436 16.0761 29.0229 16.0761C28.5145 16.0761 28.0541 15.9852 27.6415 15.8022C27.229 15.6205 26.9183 15.37 26.7108 15.052C26.5021 14.734 26.3977 14.3681 26.3977 13.9543H27.9153C27.9153 14.2907 28.0025 14.5388 28.1756 14.6984C28.35 14.858 28.6324 14.9378 29.0229 14.9378C29.2721 14.9378 29.4698 14.8838 29.6159 14.7758C29.7608 14.6677 29.8332 14.5167 29.8332 14.3202Z" fill="url(#paint18_linear_101_340)"/>
<path d="M33.7722 15.041C33.9527 15.041 34.1038 15.0017 34.2229 14.9243C34.342 14.847 34.4279 14.7598 34.4795 14.6616V13.915H34.0559C33.5512 13.915 33.2983 14.1422 33.2983 14.5965C33.2983 14.7291 33.3425 14.8359 33.4321 14.9182C33.5205 15.0005 33.6335 15.041 33.7722 15.041ZM34.6821 15.9901C34.6293 15.8943 34.5838 15.7556 34.5433 15.5714C34.2769 15.9078 33.9024 16.0761 33.4235 16.0761C32.9839 16.0761 32.6107 15.9434 32.3025 15.677C31.9955 15.4106 31.842 15.0766 31.842 14.6738C31.842 14.168 32.0287 13.7861 32.4019 13.527C32.7752 13.2679 33.3179 13.139 34.0313 13.139H34.4795V12.891C34.4795 12.4612 34.2941 12.2451 33.9233 12.2451C33.5782 12.2451 33.4063 12.4158 33.4063 12.7572H31.9538C31.9538 12.3065 32.1453 11.9394 32.5296 11.6582C32.9127 11.377 33.4014 11.2358 33.9957 11.2358C34.5912 11.2358 35.0603 11.3807 35.4053 11.6717C35.7503 11.9627 35.9271 12.3606 35.9357 12.8664V14.9329C35.9419 15.3614 36.0082 15.6893 36.1346 15.9164V15.9901H34.6821Z" fill="url(#paint19_linear_101_340)"/>
<path d="M38.4566 15.041C38.6383 15.041 38.7881 15.0017 38.9072 14.9243C39.0263 14.847 39.1122 14.7598 39.1638 14.6616V13.915H38.7414C38.2355 13.915 37.9826 14.1422 37.9826 14.5965C37.9826 14.7291 38.028 14.8359 38.1164 14.9182C38.2061 15.0005 38.319 15.041 38.4566 15.041ZM39.3664 15.9901C39.3148 15.8956 39.2682 15.7556 39.2289 15.5714C38.9612 15.9078 38.5879 16.0761 38.1078 16.0761C37.6683 16.0761 37.295 15.9434 36.9868 15.677C36.6798 15.4118 36.5264 15.0766 36.5264 14.6738C36.5264 14.168 36.713 13.7861 37.0863 13.527C37.4595 13.2679 38.0035 13.139 38.7156 13.139H39.1638V12.891C39.1638 12.4612 38.9784 12.2451 38.6076 12.2451C38.2626 12.2451 38.0907 12.4158 38.0907 12.7572H36.6381C36.6381 12.3065 36.8296 11.9394 37.214 11.6582C37.5971 11.377 38.0857 11.2358 38.6813 11.2358C39.2755 11.2358 39.7458 11.3807 40.0908 11.6717C40.4359 11.9627 40.6114 12.3606 40.62 12.8664V14.9329C40.6262 15.3614 40.6925 15.6893 40.819 15.9164V15.9901H39.3664Z" fill="url(#paint20_linear_101_340)"/>
<path d="M44.727 14.3202C44.727 14.0992 44.6497 13.9273 44.4925 13.8033C44.3354 13.6793 44.0603 13.5516 43.6674 13.419C43.2733 13.2876 42.9516 13.1587 42.7023 13.0347C41.8882 12.6356 41.4818 12.0855 41.4818 11.3869C41.4818 11.0394 41.5837 10.7324 41.7863 10.466C41.9877 10.2008 42.275 9.99325 42.6458 9.84468C43.0166 9.69734 43.4329 9.62244 43.8958 9.62244C44.3464 9.62244 44.7504 9.70348 45.1089 9.86432C45.4662 10.0252 45.7449 10.2548 45.9426 10.5519C46.1403 10.8503 46.2398 11.1904 46.2398 11.5723H44.732C44.732 11.3169 44.6534 11.118 44.4974 10.978C44.3403 10.8368 44.1278 10.7656 43.8614 10.7656C43.5913 10.7656 43.3776 10.8257 43.2205 10.9448C43.0645 11.0652 42.9859 11.2162 42.9859 11.4004C42.9859 11.5612 43.0719 11.7073 43.245 11.8375C43.4169 11.9689 43.7202 12.1039 44.1536 12.2439C44.5883 12.3827 44.9444 12.5337 45.2231 12.6945C45.9009 13.085 46.2398 13.6253 46.2398 14.3116C46.2398 14.8617 46.0335 15.2927 45.6197 15.6058C45.2059 15.9201 44.6386 16.0761 43.9167 16.0761C43.4083 16.0761 42.9479 15.9852 42.5353 15.8022C42.124 15.6205 41.8133 15.37 41.6046 15.052C41.3959 14.734 41.2927 14.3681 41.2927 13.9543H42.8091C42.8091 14.2907 42.8963 14.5388 43.0707 14.6984C43.2438 14.858 43.5262 14.9378 43.9167 14.9378C44.1671 14.9378 44.3648 14.8838 44.5097 14.7758C44.6546 14.6677 44.727 14.5167 44.727 14.3202Z" fill="url(#paint21_linear_101_340)"/>
<path d="M39.197 50.1957L39.7029 50.2326L49.107 50.1957C49.5343 50.1957 49.8364 49.8507 49.7836 49.4246L47.3426 30.1264C47.2886 29.7003 46.8993 29.3541 46.472 29.3541L37.0581 29.2448C35.9775 29.2448 35.8314 29.7003 35.8842 30.1264L38.3252 49.4246C38.3792 49.8507 38.7697 50.1957 39.197 50.1957Z" fill="url(#paint22_linear_101_340)"/>
<path d="M39.7924 50.1957H49.7036C50.1309 50.1957 50.433 49.8495 50.379 49.4222L47.9392 30.0626C47.8852 29.6353 47.4947 29.2878 47.0687 29.2878H37.1574C36.7301 29.2878 36.4268 29.6353 36.4808 30.0626L38.9218 49.4222C38.9758 49.8495 39.3651 50.1957 39.7924 50.1957Z" fill="black"/>
<path d="M37.1574 29.3504C36.9696 29.3504 36.8026 29.4241 36.6872 29.5542C36.5705 29.6868 36.5189 29.8649 36.5435 30.0552L38.9832 49.4136C39.0336 49.8102 39.3958 50.1331 39.7924 50.1331H49.7037C49.8903 50.1331 50.0573 50.0607 50.1727 49.9305C50.2894 49.7967 50.3409 49.6199 50.3176 49.4295L47.8766 30.0699C47.8263 29.6733 47.4641 29.3504 47.0687 29.3504H37.1574ZM49.7037 50.2584H39.7924C39.3356 50.2584 38.9169 49.8863 38.8592 49.4295L36.4195 30.0699C36.39 29.844 36.4526 29.6316 36.5938 29.472C36.7326 29.3136 36.9327 29.2252 37.1574 29.2252H47.0687C47.5242 29.2252 47.9429 29.5972 48.0006 30.0552L50.4416 49.4136C50.4699 49.6395 50.4072 49.8532 50.2673 50.0128C50.1273 50.1712 49.9271 50.2584 49.7037 50.2584Z" fill="url(#paint23_linear_101_340)"/>
<path d="M37.3195 30.8472C37.29 30.8472 37.2642 30.8582 37.2471 30.8779C37.2299 30.8987 37.2213 30.9257 37.225 30.9552L39.5554 49.4406C39.564 49.5081 39.6266 49.5646 39.6942 49.5646H49.6582C49.6877 49.5646 49.7135 49.5536 49.7307 49.5339C49.7491 49.5131 49.7565 49.486 49.7528 49.4566L47.4223 30.9712C47.4137 30.9036 47.3499 30.8472 47.2836 30.8472H37.3195ZM49.6582 49.6899H39.6942C39.5628 49.6899 39.4474 49.588 39.4314 49.4566L37.1009 30.9712C37.0923 30.9049 37.1108 30.8423 37.1525 30.7956C37.1943 30.7477 37.2532 30.7219 37.3195 30.7219H47.2836C47.4149 30.7219 47.5304 30.8251 47.5463 30.9552L49.8768 49.4406C49.8854 49.5069 49.867 49.5695 49.8252 49.6162C49.7835 49.6641 49.7245 49.6899 49.6582 49.6899Z" fill="url(#paint24_linear_101_340)"/>
<path d="M42.1635 29.7556C42.1046 29.7556 42.053 29.7777 42.0174 29.8182C41.9806 29.86 41.9646 29.9152 41.9732 29.9754C41.9892 30.1043 42.107 30.2099 42.2372 30.2099C42.2961 30.2099 42.3477 30.1878 42.3833 30.1473C42.4201 30.1068 42.4349 30.0503 42.4275 29.9901C42.4115 29.8612 42.2937 29.7556 42.1635 29.7556ZM42.2372 30.3352C42.0469 30.3352 41.8725 30.1805 41.848 29.9901C41.8369 29.8944 41.8627 29.8047 41.9229 29.736C41.983 29.6672 42.069 29.6304 42.1635 29.6304C42.3538 29.6304 42.5282 29.7851 42.5527 29.9754C42.565 30.0712 42.538 30.162 42.4778 30.2308C42.4177 30.2983 42.3317 30.3352 42.2372 30.3352Z" fill="url(#paint25_linear_101_340)"/>
<path d="M16.3846 40.5889C15.2709 38.7987 15.8197 36.4437 17.6087 35.3288C19.3977 34.2151 21.7503 34.764 22.864 36.5554C23.9764 38.3456 23.4288 40.7007 21.6386 41.8143C19.8496 42.9292 17.497 42.3804 16.3846 40.5889ZM23.0445 45.4807L24.303 44.6973L23.7714 43.1674C24.0304 42.9329 24.2662 42.6812 24.4786 42.4135L26.0367 42.8433L26.7354 41.5344L25.51 40.476C25.6156 40.1469 25.6942 39.8105 25.7445 39.4704L27.3113 39.0615L27.2621 37.5782L25.6745 37.2749C25.6033 36.941 25.5026 36.6107 25.3725 36.2865L26.5254 35.1483L25.7433 33.8885L24.2134 34.4214C23.9801 34.1611 23.7296 33.9253 23.4619 33.7129L23.8905 32.1536L22.584 31.4537L21.5256 32.6803C21.1978 32.5747 20.8613 32.4961 20.5212 32.4458L20.1123 30.8778L18.6315 30.9257L18.327 32.5158C17.9943 32.587 17.664 32.6877 17.3398 32.8178L16.2041 31.6636L14.9455 32.447L15.4772 33.9781C15.2181 34.2114 14.9811 34.4632 14.7699 34.7308L13.2106 34.3011L12.5119 35.6087L13.7373 36.6696C13.6317 36.9974 13.5531 37.3339 13.5028 37.674L11.936 38.0829L11.9851 39.5649L13.5728 39.8694C13.644 40.2034 13.7459 40.5337 13.8748 40.8578L12.7219 41.9961L13.5052 43.2558L15.0339 42.7229C15.2672 42.982 15.5189 43.219 15.7866 43.4314L15.3568 44.992L16.6633 45.6907L17.7229 44.464C18.0508 44.5696 18.386 44.6482 18.7273 44.6986L19.135 46.2665L20.6158 46.2187L20.9203 44.6286C21.2542 44.5574 21.5833 44.4555 21.9075 44.3265L23.0445 45.4807Z" fill="black"/>
<path d="M19.6164 34.8144C18.9239 34.8144 18.2449 35.0072 17.642 35.3829C16.7911 35.9121 16.1968 36.7421 15.9697 37.7195C15.7413 38.6969 15.9083 39.7037 16.4375 40.5559C16.9667 41.408 17.7955 42.0023 18.7716 42.2306C19.749 42.4578 20.7546 42.292 21.6055 41.7616C22.4577 41.2324 23.0507 40.4024 23.2791 39.425C23.5063 38.4476 23.3405 37.4408 22.8101 36.5886C22.2809 35.7365 21.452 35.1422 20.4759 34.9138C20.191 34.8475 19.9025 34.8144 19.6164 34.8144ZM19.6311 42.4553C19.3365 42.4553 19.0381 42.421 18.7434 42.3522C17.7353 42.1177 16.8783 41.5025 16.3307 40.6222C15.7843 39.7418 15.6124 38.7006 15.8469 37.6913C16.0826 36.682 16.6966 35.8237 17.5757 35.2761C18.4548 34.7284 19.4948 34.5565 20.5041 34.7923C21.5134 35.0268 22.3705 35.642 22.9169 36.5223C23.4645 37.4027 23.6364 38.4427 23.4007 39.4532C23.1661 40.4638 22.5522 41.3208 21.6718 41.8684C21.0493 42.2564 20.347 42.4553 19.6311 42.4553ZM17.723 44.4015C17.7292 44.4015 17.7353 44.4027 17.7415 44.404C18.0656 44.5096 18.3996 44.5869 18.736 44.636C18.7606 44.6397 18.7815 44.6581 18.7876 44.6827L19.183 46.2028L20.5643 46.1573L20.859 44.6176C20.8627 44.5918 20.8823 44.5734 20.9069 44.5673C21.2347 44.4973 21.5638 44.3966 21.8843 44.2689C21.9076 44.2591 21.9346 44.2652 21.9518 44.2824L23.0532 45.401L24.227 44.6704L23.7125 43.1872C23.7039 43.1638 23.7101 43.1368 23.7297 43.1196C23.9851 42.8888 24.2209 42.6383 24.4284 42.3743C24.4443 42.3547 24.4701 42.3461 24.4947 42.3534L26.0049 42.7697L26.6569 41.5492L25.4696 40.5227C25.45 40.5067 25.4426 40.4797 25.4512 40.4564C25.5555 40.1322 25.6329 39.797 25.682 39.4606C25.6857 39.436 25.7041 39.4152 25.7287 39.409L27.2475 39.0137L27.2021 37.6311L25.6624 37.3364C25.6378 37.3315 25.6182 37.3131 25.6133 37.2885C25.5433 36.9595 25.4426 36.6304 25.3149 36.3087C25.3051 36.2854 25.3112 36.2596 25.3296 36.2412L26.4457 35.1385L25.7164 33.9647L24.2344 34.4804C24.211 34.489 24.184 34.4816 24.1681 34.4632C23.936 34.2066 23.6855 33.9709 23.4228 33.7621C23.4031 33.7474 23.3945 33.7204 23.4007 33.697L23.8169 32.1843L22.5989 31.5323L21.5724 32.7209C21.5564 32.7405 21.5294 32.7479 21.5061 32.7393C21.1819 32.6349 20.8479 32.5576 20.5115 32.5072C20.487 32.5036 20.4661 32.4864 20.4599 32.4618L20.0646 30.9417L18.6832 30.9872L18.3898 32.5269C18.3849 32.5527 18.3652 32.5711 18.3407 32.5772C18.0128 32.6472 17.6838 32.7479 17.3633 32.8756C17.34 32.8842 17.3129 32.8793 17.2958 32.8609L16.1944 31.7435L15.0205 32.4741L15.5362 33.9573C15.5436 33.9807 15.5375 34.0077 15.519 34.0249C15.2624 34.2557 15.0267 34.5062 14.8192 34.7702C14.8032 34.7898 14.7774 34.7984 14.7529 34.7911L13.2426 34.3748L12.5918 35.5953L13.7779 36.6218C13.7976 36.6378 13.805 36.6648 13.7976 36.6881C13.6932 37.0123 13.6146 37.3475 13.5655 37.6839C13.5618 37.7085 13.5434 37.7293 13.5189 37.7355L12.0012 38.1308L12.0467 39.5134L13.5852 39.8081C13.6097 39.813 13.6294 39.8314 13.6343 39.856C13.7043 40.185 13.805 40.5141 13.9327 40.8346C13.9425 40.8579 13.9363 40.8849 13.9191 40.9033L12.8018 42.0047L13.5311 43.1798L15.0132 42.6641C15.0365 42.6567 15.0635 42.6629 15.0807 42.6813C15.3115 42.9379 15.562 43.1736 15.8248 43.3824C15.8444 43.3983 15.853 43.4241 15.8469 43.4475L15.4306 44.9602L16.6499 45.6122L17.6752 44.4236C17.6874 44.4089 17.7046 44.4015 17.723 44.4015ZM19.1351 46.3292C19.1068 46.3292 19.0823 46.3108 19.0737 46.2826L18.6771 44.7539C18.3615 44.706 18.0472 44.6323 17.7427 44.5366L16.7113 45.7313C16.6916 45.7534 16.6597 45.7595 16.6339 45.746L15.3275 45.0474C15.3017 45.0326 15.2882 45.0032 15.2968 44.9749L15.7155 43.4548C15.4687 43.2571 15.2342 43.0361 15.0156 42.7967L13.525 43.3148C13.498 43.3247 13.4673 43.3136 13.4513 43.2891L12.6692 42.0293C12.6532 42.0035 12.6569 41.9716 12.6778 41.9507L13.8013 40.8432C13.6834 40.5411 13.5889 40.2317 13.5213 39.9235L11.973 39.6276C11.9448 39.6215 11.9239 39.5969 11.9226 39.5674L11.8735 38.0854C11.8735 38.0559 11.892 38.0289 11.9202 38.0228L13.4476 37.625C13.4968 37.3082 13.5692 36.9938 13.665 36.6893L12.4715 35.6567C12.4494 35.6383 12.4433 35.6051 12.4568 35.5793L13.1554 34.2717C13.1689 34.2459 13.1996 34.2324 13.2279 34.241L14.7467 34.6597C14.9444 34.4129 15.1642 34.1784 15.4036 33.9586L14.8855 32.468C14.8769 32.4397 14.8867 32.409 14.9125 32.3943L16.171 31.6109C16.1956 31.5949 16.2275 31.5986 16.2484 31.6195L17.3559 32.7442C17.658 32.6263 17.9662 32.5318 18.2744 32.463L18.5703 30.9147C18.5752 30.8852 18.5997 30.8644 18.6292 30.8631L20.1112 30.8153C20.1382 30.8128 20.1665 30.8337 20.1739 30.8619L20.5704 32.3906C20.886 32.4385 21.2003 32.5122 21.5048 32.6079L22.5362 31.4132C22.5559 31.3911 22.5878 31.385 22.6136 31.3985L23.92 32.0971C23.9471 32.1119 23.9593 32.1413 23.9507 32.1696L23.5333 33.6897C23.7788 33.8874 24.0146 34.1096 24.2331 34.3478L25.7225 33.8296C25.7495 33.8198 25.7802 33.8309 25.7962 33.8554L26.5784 35.1152C26.5943 35.1398 26.5906 35.1729 26.5698 35.1938L25.4463 36.3013C25.5641 36.6034 25.6587 36.9128 25.7274 37.221L27.2745 37.5169C27.3028 37.523 27.3237 37.5476 27.3249 37.5771L27.374 39.0591C27.3752 39.0886 27.3556 39.1143 27.3273 39.1217L25.7999 39.5208C25.752 39.8363 25.6783 40.1494 25.5826 40.4552L26.776 41.4878C26.7981 41.5062 26.8043 41.5381 26.7908 41.5639L26.0921 42.8728C26.0786 42.8986 26.0491 42.9121 26.0209 42.9035L24.502 42.4848C24.3044 42.7316 24.0833 42.9661 23.8439 43.1859L24.3621 44.6765C24.3719 44.7048 24.3608 44.7355 24.3363 44.7502L23.0777 45.5336C23.0519 45.5495 23.02 45.5459 22.9991 45.525L21.8916 44.4003C21.5908 44.5181 21.2826 44.6127 20.9732 44.6815L20.6785 46.2298C20.6724 46.2592 20.6478 46.2801 20.6183 46.2814L19.1363 46.3292C19.1363 46.3292 19.1363 46.3292 19.1351 46.3292Z" fill="url(#paint26_linear_101_340)"/>
<path d="M29.0155 34.5577C28.5182 33.7584 28.7638 32.7061 29.5619 32.2088C30.3612 31.7116 31.4123 31.9559 31.9095 32.7565C32.4068 33.5558 32.1613 34.6081 31.3619 35.1054C30.5638 35.6026 29.5128 35.3583 29.0155 34.5577ZM31.9894 36.7421L32.5517 36.3922L32.3147 35.7095C32.4302 35.6051 32.5357 35.4921 32.6303 35.373L33.3265 35.5646L33.6384 34.9801L33.092 34.5074C33.1386 34.3601 33.173 34.2103 33.1963 34.058L33.8962 33.8751L33.8741 33.2132L33.1644 33.0782C33.1325 32.9284 33.0871 32.781 33.0293 32.6361L33.545 32.1278L33.1951 31.5655L32.5124 31.8024C32.4081 31.687 32.2951 31.5814 32.176 31.4869L32.3675 30.7907L31.7843 30.4776L31.3116 31.0252C31.1655 30.9785 31.0157 30.9429 30.8634 30.9208L30.6805 30.2209L30.0186 30.2418L29.8836 30.9528C29.7338 30.9847 29.5877 31.0289 29.4428 31.0866L28.9344 30.5721L28.3721 30.9221L28.6103 31.6047C28.4949 31.7091 28.3893 31.8221 28.2947 31.9412L27.5985 31.7496L27.2867 32.3341L27.8331 32.8068C27.7864 32.9542 27.7508 33.104 27.7287 33.2562L27.0288 33.4379L27.0509 34.101L27.7606 34.2373C27.7913 34.3858 27.8367 34.5332 27.8944 34.6781L27.38 35.1864L27.7299 35.7488L28.4126 35.5118C28.517 35.6272 28.6287 35.7328 28.7478 35.8273L28.5563 36.5235L29.1407 36.8366L29.6134 36.289C29.7596 36.3357 29.9094 36.3713 30.0616 36.3934L30.2433 37.0933L30.9052 37.0724L31.0414 36.3627C31.19 36.3308 31.3374 36.2853 31.4822 36.2276L31.9894 36.7421Z" fill="black"/>
<path d="M29.0892 34.241C28.5919 33.4404 28.8375 32.3894 29.6368 31.8909C30.4362 31.3936 31.486 31.6391 31.9833 32.4385C32.4806 33.239 32.235 34.2901 31.4356 34.7886C30.6375 35.2859 29.5865 35.0403 29.0892 34.241ZM32.0643 36.4253L32.6254 36.0754L32.3885 35.3915C32.5039 35.2871 32.6095 35.1754 32.704 35.055L33.4002 35.2478L33.7121 34.6634L33.1657 34.1894C33.2124 34.0433 33.248 33.8935 33.2701 33.74L33.9699 33.5583L33.9478 32.8965L33.2381 32.7602C33.2062 32.6116 33.162 32.463 33.1043 32.3181L33.6188 31.811L33.2688 31.2475L32.5861 31.4857C32.4818 31.3702 32.37 31.2646 32.2497 31.1701L32.4425 30.4727L31.858 30.1608L31.3853 30.7084C31.2392 30.6605 31.0894 30.6262 30.9371 30.6041L30.7542 29.903L30.0936 29.9251L29.9573 30.6348C29.8087 30.6667 29.6614 30.7121 29.5165 30.7698L29.0082 30.2541L28.447 30.6041L28.684 31.288C28.5686 31.3923 28.463 31.5041 28.3685 31.6244L27.6723 31.4316L27.3604 32.0161L27.9068 32.49C27.8601 32.6362 27.8257 32.786 27.8024 32.9382L27.1025 33.1212L27.1246 33.783L27.8343 33.9193C27.8663 34.0678 27.9105 34.2164 27.9682 34.3601L27.4537 34.8684L27.8036 35.4308L28.4863 35.1938C28.5907 35.3092 28.7024 35.4148 28.8228 35.5093L28.63 36.2068L29.2145 36.5186L29.6872 35.971C29.8333 36.0189 29.9831 36.0533 30.1353 36.0754L30.3183 36.7765L30.9801 36.7544L31.1152 36.0447C31.2637 36.0128 31.4123 35.9673 31.556 35.9096L32.0643 36.4253Z" fill="black"/>
<path d="M30.533 31.6956C30.2298 31.6956 29.9326 31.7803 29.6699 31.9449C29.2966 32.1769 29.0375 32.5391 28.9381 32.9664C28.8374 33.3937 28.911 33.8345 29.1419 34.2078C29.374 34.5798 29.7362 34.8401 30.1635 34.9396C30.5908 35.0391 31.0303 34.9666 31.4036 34.7345C31.7756 34.5025 32.0347 34.1403 32.1342 33.713C32.2336 33.2857 32.1612 32.8449 31.9304 32.4716C31.6983 32.0996 31.3361 31.8393 30.9088 31.7398C30.7835 31.7103 30.6583 31.6956 30.533 31.6956ZM30.5392 35.109C30.4054 35.109 30.2691 35.0931 30.1352 35.0624C29.676 34.9543 29.2855 34.6744 29.0363 34.2741C28.787 33.8726 28.7085 33.3986 28.8153 32.9382C28.9233 32.479 29.2021 32.0873 29.6036 31.838C30.0038 31.5888 30.4778 31.5102 30.937 31.617C31.3975 31.7251 31.7867 32.005 32.0359 32.4053C32.2852 32.8068 32.3638 33.2808 32.257 33.7412C32.1489 34.2017 31.8702 34.5921 31.4687 34.8414C31.185 35.0182 30.8658 35.109 30.5392 35.109ZM29.6871 35.9084C29.6932 35.9084 29.6993 35.9096 29.7067 35.9108C29.8491 35.9575 29.9965 35.9919 30.145 36.014C30.1696 36.0177 30.1892 36.0361 30.1966 36.0606L30.3661 36.7126L30.9272 36.6942L31.0537 36.0324C31.0586 36.0078 31.077 35.9882 31.1015 35.9833C31.2464 35.9526 31.3913 35.9084 31.5325 35.8519C31.5559 35.8421 31.5829 35.8482 31.6013 35.8654L32.0728 36.3455L32.5504 36.0484L32.3294 35.4123C32.3208 35.389 32.3282 35.362 32.3466 35.3448C32.4596 35.2429 32.5639 35.1324 32.6548 35.0157C32.6707 34.9961 32.6965 34.9875 32.7211 34.9949L33.3682 35.1741L33.6334 34.6781L33.1238 34.2373C33.1054 34.2201 33.098 34.1943 33.1054 34.171C33.1521 34.0273 33.1864 33.88 33.2073 33.7314C33.211 33.7068 33.2294 33.686 33.254 33.6798L33.9047 33.5104L33.8863 32.948L33.227 32.8215C33.2024 32.8166 33.1828 32.7982 33.1779 32.7737C33.1459 32.6288 33.1017 32.4827 33.0452 32.3415C33.0367 32.3181 33.0416 32.2923 33.06 32.2739L33.5388 31.8012L33.2429 31.3236L32.6069 31.5446C32.5836 31.5532 32.5566 31.5458 32.5394 31.5274C32.4375 31.4144 32.3269 31.3113 32.2115 31.2192C32.1919 31.2032 32.1833 31.1774 32.1894 31.1529L32.3687 30.5046L31.8726 30.2394L31.4331 30.7489C31.4159 30.7686 31.3901 30.7759 31.3655 30.7673C31.2231 30.7219 31.0758 30.6875 30.9272 30.6654C30.9026 30.6617 30.883 30.6433 30.8756 30.6188L30.7062 29.9668L30.145 29.9864L30.0186 30.6458C30.0137 30.6716 29.9952 30.6912 29.9707 30.6961C29.8258 30.7268 29.6809 30.771 29.5397 30.8275C29.5164 30.8373 29.4894 30.8312 29.471 30.814L28.9995 30.3339L28.5218 30.631L28.7428 31.2671C28.7514 31.2904 28.7453 31.3174 28.7256 31.3346C28.6127 31.4365 28.5095 31.547 28.4175 31.6624C28.4015 31.6833 28.3757 31.6919 28.3511 31.6845L27.7041 31.5053L27.4388 32.0013L27.9484 32.4421C27.9668 32.4593 27.9742 32.4851 27.9668 32.5084C27.9202 32.6521 27.8858 32.7994 27.8649 32.948C27.8612 32.9726 27.8428 32.9934 27.8183 32.9996L27.1675 33.169L27.1859 33.7314L27.8453 33.8579C27.8698 33.8628 27.8895 33.8812 27.8956 33.9057C27.9263 34.0506 27.9705 34.1955 28.027 34.3379C28.0356 34.3613 28.0307 34.3871 28.0123 34.4055L27.5334 34.8782L27.8293 35.3558L28.4653 35.1348C28.4899 35.1262 28.5157 35.1324 28.5329 35.152C28.6348 35.265 28.7453 35.3693 28.8607 35.4602C28.8804 35.4762 28.8889 35.502 28.8828 35.5265L28.7048 36.1748L29.1996 36.44L29.6392 35.9305C29.6514 35.9157 29.6686 35.9084 29.6871 35.9084ZM30.3182 36.8391C30.2899 36.8391 30.2641 36.8194 30.2568 36.7924L30.0849 36.1318C29.9572 36.111 29.8307 36.0815 29.7079 36.0434L29.2622 36.5591C29.2426 36.5812 29.2106 36.5886 29.1849 36.5739L28.6004 36.262C28.5746 36.2485 28.5623 36.2178 28.5697 36.1896L28.7514 35.5327C28.652 35.4516 28.5562 35.362 28.4678 35.2662L27.8244 35.4909C27.7962 35.5007 27.7655 35.4897 27.7507 35.4651L27.4008 34.9015C27.3848 34.877 27.3885 34.8451 27.4094 34.8242L27.8956 34.3453C27.849 34.2225 27.8109 34.0973 27.7814 33.9733L27.1122 33.8443C27.084 33.8394 27.0631 33.8149 27.0619 33.7854L27.0398 33.1236C27.0398 33.0941 27.0582 33.0683 27.0877 33.061L27.747 32.8878C27.7679 32.7614 27.7974 32.6337 27.8354 32.5109L27.3197 32.064C27.2964 32.0443 27.2915 32.0124 27.305 31.9866L27.6169 31.4021C27.6304 31.3764 27.6611 31.3641 27.6893 31.3714L28.345 31.5532C28.426 31.4537 28.5157 31.3579 28.6115 31.2695L28.388 30.6249C28.3782 30.5967 28.388 30.566 28.4138 30.5512L28.9761 30.2013C29.0007 30.1853 29.0326 30.189 29.0535 30.2099L29.5323 30.6961C29.6539 30.6495 29.7791 30.6114 29.9032 30.5832L30.0309 29.9128C30.037 29.8845 30.0616 29.8636 30.091 29.8624L30.7528 29.8403C30.7798 29.8366 30.8081 29.8587 30.8155 29.887L30.9874 30.5476C31.1138 30.5684 31.2415 30.5979 31.3655 30.636L31.8112 30.119C31.8297 30.0969 31.8616 30.0908 31.8874 30.1055L32.4718 30.4174C32.4976 30.4309 32.5099 30.4616 32.5025 30.4898L32.322 31.1467C32.4203 31.2278 32.516 31.3174 32.6044 31.4132L33.2478 31.1885C33.2761 31.1787 33.3068 31.1897 33.3227 31.2143L33.6715 31.7779C33.6874 31.8024 33.6837 31.8343 33.6629 31.8552L33.1779 32.3341C33.2245 32.4569 33.2613 32.5821 33.2908 32.7061L33.96 32.8338C33.9882 32.84 34.0091 32.8645 34.0103 32.894L34.0324 33.5558C34.0324 33.5853 34.014 33.6111 33.9858 33.6184L33.3252 33.7916C33.3043 33.9192 33.2749 34.0457 33.2368 34.1697L33.7537 34.6154C33.7758 34.6351 33.782 34.667 33.7672 34.6928L33.4553 35.2773C33.4418 35.303 33.4124 35.3153 33.3841 35.308L32.7272 35.1262C32.6462 35.2257 32.5578 35.3215 32.4608 35.4099L32.6855 36.0545C32.6941 36.0827 32.683 36.1134 32.6585 36.1282L32.0973 36.4781C32.0716 36.4941 32.0396 36.4904 32.0188 36.4695L31.5411 35.9833C31.4183 36.0299 31.2931 36.068 31.1691 36.0975L31.0414 36.7666C31.0352 36.7949 31.0107 36.8158 30.9812 36.817L30.3194 36.8391H30.3182Z" fill="url(#paint27_linear_101_340)"/>
<path d="M46.1895 24.1934C46.095 25.7724 44.7406 26.9769 43.1616 26.8836C41.5838 26.7891 40.3805 25.4323 40.4738 23.8533C40.5684 22.273 41.9239 21.0685 43.5017 21.163C45.0795 21.2564 46.2828 22.6131 46.1895 24.1934Z" fill="black"/>
<path d="M43.3274 21.2208C42.6422 21.2208 41.989 21.4688 41.4733 21.9268C40.9134 22.4241 40.5807 23.1092 40.5365 23.857C40.4456 25.3992 41.6244 26.7289 43.1653 26.821C43.9119 26.8652 44.6314 26.616 45.19 26.1187C45.75 25.6214 46.0827 24.9363 46.1269 24.1897C46.1711 23.442 45.9219 22.7224 45.4258 22.1625C44.9285 21.6026 44.2446 21.2699 43.4981 21.2257C43.4404 21.222 43.3839 21.2208 43.3274 21.2208ZM43.336 26.9512C43.277 26.9512 43.2169 26.9487 43.1579 26.9463C41.5482 26.8505 40.3155 25.4606 40.4112 23.8496C40.4579 23.0687 40.8054 22.3528 41.3898 21.8335C41.9743 21.3141 42.7245 21.0525 43.5054 21.1004C44.2851 21.1471 45.001 21.4946 45.5191 22.079C46.0373 22.6635 46.2976 23.4162 46.2521 24.1971C46.2055 24.9768 45.858 25.6938 45.2735 26.212C44.7333 26.6921 44.0518 26.9512 43.336 26.9512Z" fill="url(#paint28_linear_101_340)"/>
<path d="M44.7112 22.1944C44.1219 22.7666 43.3852 23.6089 43.0561 24.5494L41.7386 23.006C41.7018 22.963 41.6232 22.9986 41.6477 23.0465C42.2003 24.1872 42.7491 25.129 43.1371 25.9652C43.1764 26.0499 43.3213 26.045 43.3471 25.9578C43.686 24.8343 44.2373 23.4652 44.8475 22.2668C44.8844 22.1956 44.7714 22.1355 44.7112 22.1944Z" fill="url(#paint29_linear_101_340)"/>
<path d="M50.034 4.79938C50.0303 4.79938 50.0254 4.79938 50.0204 4.79816C49.9873 4.79079 49.9652 4.75641 49.9738 4.72326L50.0683 4.30578C50.0757 4.27263 50.1101 4.25053 50.1432 4.25913C50.1776 4.26649 50.1985 4.29965 50.1911 4.33403L50.0953 4.7515C50.0892 4.77974 50.0634 4.79938 50.034 4.79938Z" fill="url(#paint30_linear_101_340)"/>
<path d="M49.7024 6.26055C49.6963 6.26055 49.6926 6.25932 49.6877 6.25932C49.6545 6.25073 49.6324 6.21758 49.641 6.18442L49.7356 5.76695C49.7442 5.73257 49.7773 5.7117 49.8105 5.71907C49.8448 5.72643 49.8657 5.76081 49.8584 5.79397L49.7626 6.21144C49.7564 6.24091 49.7307 6.26055 49.7024 6.26055Z" fill="url(#paint31_linear_101_340)"/>
<path d="M49.4041 5.19721C49.3992 5.19721 49.3943 5.19598 49.3894 5.19475L48.9793 5.0953C48.9461 5.0867 48.9252 5.05355 48.9338 5.01917C48.9424 4.98602 48.9756 4.96514 49.0099 4.97374L49.4188 5.0732C49.452 5.08179 49.4729 5.11494 49.4643 5.14932C49.4581 5.17756 49.4323 5.19721 49.4041 5.19721Z" fill="url(#paint32_linear_101_340)"/>
<path d="M50.837 5.5459C50.832 5.5459 50.8271 5.5459 50.8222 5.54467L50.4121 5.44399C50.379 5.43662 50.3581 5.40224 50.3667 5.36909C50.3741 5.33471 50.4084 5.31383 50.4416 5.32243L50.8517 5.42311C50.8848 5.43048 50.9057 5.46486 50.8971 5.49801C50.8898 5.52625 50.864 5.5459 50.837 5.5459Z" fill="url(#paint33_linear_101_340)"/>
<path d="M49.1659 1.79237C49.0038 2.02689 49.0615 2.3535 49.296 2.52295C49.4102 2.60521 49.549 2.63837 49.6853 2.61504C49.8191 2.59171 49.9357 2.51804 50.0131 2.40753C50.1764 2.17424 50.1175 1.8464 49.8829 1.67695C49.7688 1.59469 49.63 1.56154 49.4937 1.58487C49.3599 1.60819 49.2432 1.68187 49.1659 1.79237ZM49.5993 2.74765C49.4655 2.74765 49.3341 2.7059 49.2236 2.62486C48.9338 2.41612 48.8614 2.01093 49.064 1.72116C49.161 1.58241 49.3059 1.49032 49.4728 1.46085C49.6423 1.43261 49.8142 1.47313 49.9566 1.57504C50.2464 1.78378 50.3176 2.18897 50.1162 2.47875C50.0192 2.61749 49.8744 2.70958 49.7061 2.73905C49.6705 2.74519 49.6349 2.74765 49.5993 2.74765Z" fill="url(#paint34_linear_101_340)"/>
<path d="M45.9526 2.09443C45.8421 2.25283 45.8826 2.47507 46.041 2.58926C46.1184 2.64574 46.2129 2.66784 46.305 2.65188C46.3959 2.63715 46.4744 2.58681 46.5272 2.51068C46.6377 2.35351 46.5972 2.13127 46.4388 2.01585C46.3615 1.9606 46.2669 1.9385 46.1748 1.95323C46.084 1.96919 46.0054 2.01831 45.9526 2.09443ZM46.2473 2.78326C46.1478 2.78326 46.0508 2.75134 45.9673 2.69117C45.7537 2.53646 45.7009 2.23687 45.8507 2.02199C45.9219 1.92008 46.03 1.85132 46.154 1.83045C46.2804 1.80834 46.4069 1.83904 46.5125 1.91394C46.7262 2.06865 46.779 2.36947 46.6304 2.58312C46.5579 2.68626 46.4499 2.75502 46.3271 2.7759C46.3001 2.77958 46.2731 2.78326 46.2473 2.78326Z" fill="url(#paint35_linear_101_340)"/>
<path d="M8.37279 16.7809C8.37279 16.7809 7.31315 17.1762 6.89813 16.8435C6.48312 16.5107 7.54153 15.9496 7.79079 15.9913C8.04004 16.0331 8.37279 16.7809 8.37279 16.7809Z" fill="url(#paint36_linear_101_340)"/>
<path d="M13.6955 25.2567L12.6985 27.0027L12.1582 26.2537L13.0312 24.5494L13.6955 25.2567Z" fill="black"/>
<path d="M12.2318 26.2488L12.6923 26.8873L13.6181 25.2653L13.0459 24.6575L12.2318 26.2488ZM12.6984 27.0654C12.6788 27.0654 12.6591 27.0555 12.6481 27.0396L12.1078 26.2906C12.0943 26.2722 12.0919 26.2464 12.1029 26.2255L12.9747 24.5212C12.9845 24.5028 13.0017 24.4905 13.0213 24.4869C13.0422 24.4844 13.0619 24.4918 13.0766 24.5065L13.7409 25.2137C13.7593 25.2334 13.763 25.2629 13.7495 25.2874L12.7524 27.0334C12.7426 27.0518 12.723 27.0641 12.7021 27.0654C12.7009 27.0654 12.6996 27.0654 12.6984 27.0654Z" fill="url(#paint37_linear_101_340)"/>
<path d="M13.0436 26.7363C12.7809 27.279 12.1154 28.594 11.4744 29.2252C11.3185 29.3786 11.0533 29.3074 10.998 29.095C10.7966 28.335 10.6628 26.7535 11.4106 25.506C11.4106 25.506 11.7433 25.3807 12.4076 25.506L12.2836 26.212L12.3646 26.1543C12.4874 26.0659 12.6544 26.0733 12.7686 26.1715L12.9601 26.336C13.0755 26.4355 13.1099 26.5988 13.0436 26.7363Z" fill="url(#paint38_linear_101_340)"/>
<path d="M11.3699 29.0606C11.3441 29.0606 11.3195 29.0446 11.3109 29.0201C10.7265 27.4754 11.5111 25.6644 11.5197 25.6472C11.5332 25.6152 11.5713 25.6005 11.602 25.614C11.6339 25.6288 11.6486 25.6656 11.6339 25.6975C11.6265 25.7147 10.8628 27.4804 11.4276 28.9759C11.4399 29.0078 11.4239 29.0446 11.392 29.0569C11.3846 29.0594 11.3773 29.0606 11.3699 29.0606Z" fill="black"/>
<path d="M12.6567 27.5553C12.6457 27.5553 12.6334 27.5516 12.6224 27.5442L12.1239 27.2213C12.0956 27.2029 12.087 27.1636 12.1054 27.1341C12.1251 27.1059 12.1631 27.0973 12.1926 27.1157L12.6911 27.4398C12.7194 27.4583 12.728 27.4976 12.7095 27.5258C12.6973 27.5442 12.6776 27.5553 12.6567 27.5553Z" fill="black"/>
<path d="M12.4075 27.9986C12.394 27.9986 12.3805 27.9937 12.3694 27.9851L11.9127 27.6339C11.8856 27.613 11.8807 27.5737 11.9016 27.5467C11.9225 27.5185 11.9618 27.5136 11.9888 27.5344L12.4455 27.8856C12.4738 27.9065 12.4787 27.9458 12.4578 27.974C12.4455 27.99 12.4259 27.9986 12.4075 27.9986Z" fill="black"/>
<path d="M16.8525 25.2985C16.8525 25.339 17.766 27.3355 17.766 27.3355L16.7273 27.4177L16.0212 25.7135L16.8525 25.2985Z" fill="black"/>
<path d="M16.101 25.743L16.7677 27.3515L17.6714 27.279C17.0747 25.9763 16.8819 25.5367 16.8193 25.3844L16.101 25.743ZM16.7272 27.4804C16.7026 27.4804 16.6793 27.4657 16.6695 27.4423L15.9635 25.7381C15.9512 25.7074 15.9635 25.6718 15.9929 25.657L16.8242 25.242C16.8438 25.2322 16.8659 25.2334 16.8844 25.2445C16.9003 25.2543 16.9101 25.269 16.9138 25.2862C16.9421 25.3771 17.4713 26.5423 17.8224 27.3085C17.831 27.3269 17.8298 27.349 17.82 27.3662C17.8089 27.3846 17.7905 27.3957 17.7709 27.3981L16.7321 27.4804C16.7309 27.4804 16.7284 27.4804 16.7272 27.4804Z" fill="url(#paint39_linear_101_340)"/>
<path d="M16.8105 26.9192C16.8105 26.9192 17.018 26.4207 17.5583 26.67C17.5583 26.67 18.5491 28.1029 18.9175 29.2865C19.0219 29.6205 18.6781 29.9225 18.3588 29.7777C17.6123 29.44 16.4421 28.7315 15.7717 27.4177C15.7717 27.4177 15.9792 26.8775 16.312 26.6282L16.8105 26.9192Z" fill="url(#paint40_linear_101_340)"/>
<path d="M18.6145 29.4793C18.3333 29.4793 17.3068 29.3405 15.9709 27.4963C15.95 27.4681 15.9562 27.4288 15.9844 27.4091C16.0126 27.3883 16.0519 27.3944 16.0716 27.4226C17.5696 29.4879 18.6599 29.3528 18.671 29.3516C18.7041 29.3467 18.736 29.37 18.7409 29.4044C18.7471 29.4388 18.7225 29.4707 18.6881 29.4756C18.682 29.4768 18.6574 29.4793 18.6145 29.4793Z" fill="black"/>
<path d="M17.7659 28.3534C17.7438 28.3534 17.7229 28.3423 17.7118 28.3227C17.6946 28.2932 17.7045 28.2539 17.7339 28.2367L18.2324 27.9457C18.2619 27.9285 18.3012 27.9384 18.3184 27.9691C18.3356 27.9985 18.3258 28.0366 18.2951 28.0538L17.7965 28.3448C17.7867 28.3509 17.7769 28.3534 17.7659 28.3534Z" fill="black"/>
<path d="M17.5166 27.9801C17.4945 27.9801 17.4724 27.9678 17.4614 27.9469C17.4454 27.9162 17.4565 27.8781 17.4872 27.8622L18.0262 27.5712C18.0569 27.554 18.095 27.565 18.1109 27.597C18.1281 27.6264 18.1171 27.6645 18.0864 27.6817L17.5461 27.9727C17.5363 27.9776 17.5265 27.9801 17.5166 27.9801Z" fill="black"/>
<path d="M11.5358 15.2361C11.5358 15.2361 14.2432 15.7211 16.1931 17.768C16.6854 18.2849 16.8598 19.029 16.6486 19.7117C16.2152 21.1102 15.2722 23.6666 13.6956 25.5882L12.4911 24.5494C12.4911 24.5494 12.7821 22.1379 13.5704 20.6412C14.3599 19.1444 9.74927 15.9016 9.74927 15.9016L11.5358 15.2361Z" fill="black"/>
<path d="M12.5573 24.5237L13.6869 25.4999C15.2401 23.582 16.1709 21.0427 16.5883 19.6933C16.7934 19.0315 16.6239 18.312 16.1475 17.8123C14.3119 15.8845 11.7702 15.3467 11.5406 15.3013L9.88178 15.9201C10.5632 16.41 14.3757 19.2476 13.6255 20.6707C12.9011 22.0459 12.5953 24.2303 12.5573 24.5237ZM13.6955 25.6521C13.6808 25.6521 13.666 25.646 13.655 25.6362L12.4505 24.5974C12.4345 24.5827 12.4259 24.563 12.4284 24.5421C12.432 24.5176 12.7292 22.1024 13.515 20.613C14.2701 19.1813 9.75899 15.9852 9.71356 15.9533C9.69391 15.9398 9.68409 15.9177 9.68777 15.8943C9.69023 15.871 9.70619 15.8514 9.72829 15.8428L11.5136 15.1785C11.5246 15.1736 11.5357 15.1736 11.5468 15.1748C11.5738 15.1797 14.2959 15.6868 16.2384 17.7251C16.7467 18.258 16.926 19.0254 16.7087 19.7302C16.2838 21.1005 15.3347 23.6888 13.7434 25.6288C13.7323 25.6411 13.7176 25.6497 13.7004 25.6509C13.6992 25.6521 13.6967 25.6521 13.6955 25.6521Z" fill="url(#paint41_linear_101_340)"/>
<path d="M17.1838 25.6717L15.7718 26.0879C15.7718 26.0879 13.197 20.6412 12.4492 19.8516C11.7014 19.0621 10.2476 17.7729 8.71159 17.3161C7.17432 16.8581 7.17432 15.6941 7.17432 15.6941L9.79088 14.9464C9.79088 14.9464 13.4462 16.5254 14.6507 18.3131C15.8553 20.1009 17.1838 25.6717 17.1838 25.6717Z" fill="black"/>
<path d="M7.23951 15.7408C7.25793 15.9593 7.41264 16.863 8.7289 17.2547C10.4725 17.7741 12.0527 19.3408 12.4947 19.8087C13.2118 20.565 15.5325 25.4359 15.8063 26.0118L17.109 25.6287C16.9641 25.0307 15.7179 20.0088 14.5993 18.3475C13.4648 16.6653 10.082 15.1428 9.78609 15.0114L7.23951 15.7408ZM15.7719 26.1505C15.7486 26.1505 15.7265 26.137 15.7154 26.1149C15.6896 26.0597 13.1357 20.6682 12.4039 19.8946C11.9668 19.4329 10.4062 17.8846 8.6933 17.375C7.13023 16.9097 7.11182 15.7064 7.11182 15.6941C7.11182 15.6659 7.13023 15.6413 7.15725 15.6339L9.77381 14.885C9.78732 14.8813 9.80328 14.8825 9.81556 14.8874C9.96536 14.9525 13.5016 16.4959 14.7024 18.2775C15.8996 20.0542 17.2318 25.6017 17.2453 25.6569C17.2527 25.6889 17.2343 25.722 17.2023 25.7318L15.7903 26.1481C15.7842 26.1493 15.778 26.1505 15.7719 26.1505Z" fill="url(#paint42_linear_101_340)"/>
<path d="M5.0564 11.4114C5.76241 9.99813 6.9252 9.79062 6.9252 9.79062L8.91924 9.62363C9.54176 9.58188 10.2048 9.96743 10.4516 10.5421L12.2836 14.8212C12.2836 14.8212 11.9091 15.8194 10.2478 15.9852C8.58649 16.1509 7.44458 16.0478 6.90432 16.7121C6.54824 17.1516 6.55929 14.2269 6.76435 11.9124L5.0564 11.4114Z" fill="black"/>
<path d="M5.14594 11.3733L6.78268 11.8534C6.81092 11.8608 6.82934 11.889 6.82688 11.9185C6.61323 14.3275 6.65498 16.5328 6.83793 16.6912C6.84162 16.6887 6.84776 16.6826 6.85635 16.6727C7.29224 16.1362 8.09403 16.0809 9.20401 16.0048C9.51589 15.9839 9.86951 15.9594 10.2416 15.9225C11.7088 15.7764 12.1484 14.9648 12.2147 14.8211L10.3938 10.5666C10.1617 10.0239 9.5294 9.64448 8.92283 9.68746L6.93002 9.85322C6.92511 9.85445 5.83232 10.0669 5.14594 11.3733ZM6.8367 16.8189C6.82074 16.8189 6.80601 16.8152 6.79618 16.8115C6.73234 16.7857 6.56535 16.7182 6.55921 15.0839C6.55552 14.1642 6.60709 13.0002 6.69796 11.959L5.03789 11.4715C5.0207 11.4666 5.00597 11.4543 4.9986 11.4372C4.99123 11.42 4.99246 11.4003 4.99983 11.3844C5.71199 9.95882 6.86494 9.7378 6.91406 9.72921L8.91424 9.56222C9.57114 9.51802 10.2563 9.92812 10.5092 10.5175L12.3412 14.7966C12.3473 14.8113 12.3473 14.8273 12.3412 14.8432C12.3265 14.885 11.9348 15.8795 10.2538 16.0478C9.88056 16.0846 9.52571 16.1092 9.21261 16.13C8.13332 16.2037 7.35486 16.2577 6.95335 16.7526C6.91038 16.8053 6.86863 16.8189 6.8367 16.8189Z" fill="url(#paint43_linear_101_340)"/>
<path d="M10.3731 15.1539L9.45833 14.7377L8.75231 15.0287C8.75231 15.0287 4.96437 14.5486 6.65881 11.8362C6.66618 11.824 5.32781 11.5526 5.32781 11.5526C5.32781 11.5526 3.7844 15.2362 8.67004 15.3197C8.67004 15.3197 8.9193 15.4032 9.25082 15.2362C9.58357 15.0704 10.1656 15.4032 10.3731 15.1539Z" fill="black"/>
<path d="M5.36702 11.6251C5.27493 11.8792 4.88447 13.0887 5.50085 14.0329C6.0141 14.8187 7.07988 15.2301 8.67118 15.2571C8.67732 15.2571 8.68346 15.2583 8.6896 15.2608C8.69083 15.2608 8.92044 15.332 9.22372 15.1809C9.39562 15.0938 9.61417 15.1269 9.82537 15.1588C9.98867 15.1822 10.1458 15.2055 10.249 15.1662L9.45701 14.8064L8.77678 15.0876C8.76695 15.0913 8.7559 15.0925 8.74485 15.0913C8.66627 15.0815 6.82203 14.8359 6.2965 13.7259C6.0497 13.2053 6.13811 12.5828 6.56172 11.8743C6.3579 11.8277 5.78572 11.7098 5.36702 11.6251ZM8.83571 15.4032C8.74608 15.4032 8.68346 15.3884 8.66013 15.3823C7.02954 15.3528 5.93183 14.9219 5.39648 14.1004C4.67205 12.9892 5.24546 11.5882 5.27002 11.5293C5.28107 11.5011 5.31053 11.4863 5.34 11.4912C6.69679 11.7663 6.69801 11.77 6.71643 11.8105C6.7238 11.8301 6.72257 11.8522 6.71152 11.8694C6.27563 12.5681 6.17372 13.1746 6.40947 13.6719C6.88096 14.6677 8.5619 14.9378 8.74485 14.9648L9.43491 14.68C9.45087 14.6738 9.46929 14.6738 9.48525 14.6812L10.3988 15.0962C10.416 15.1048 10.4295 15.1208 10.4332 15.1392C10.4381 15.1588 10.4332 15.1785 10.4209 15.1932C10.287 15.3541 10.0439 15.3172 9.80695 15.2829C9.6154 15.2534 9.41649 15.2239 9.27897 15.2927C9.10339 15.3811 8.94868 15.4032 8.83571 15.4032Z" fill="url(#paint44_linear_101_340)"/>
<path d="M6.8404 12.0978L4.98511 11.5735L5.05632 11.4114C5.05632 11.4114 5.26751 11.2505 5.30681 11.2505C5.34733 11.2505 6.39592 11.21 6.39592 11.21L7.04177 11.4114L6.8404 12.0978Z" fill="black"/>
<path d="M6.8404 12.1604C6.83426 12.1604 6.82812 12.1604 6.82321 12.1579L4.96792 11.6336C4.95073 11.6287 4.936 11.6164 4.9274 11.6005C4.92003 11.5833 4.92003 11.5649 4.9274 11.5477L4.99862 11.3868C5.01335 11.3549 5.05019 11.3402 5.08211 11.3549C5.11281 11.3684 5.12754 11.4053 5.11403 11.4372L5.07106 11.5329L6.79743 12.0216L6.98161 11.3942C6.99143 11.361 7.02581 11.3426 7.05896 11.3512C7.09211 11.361 7.11176 11.3967 7.10194 11.4298L6.90057 12.1162C6.89197 12.1432 6.86742 12.1604 6.8404 12.1604Z" fill="url(#paint45_linear_101_340)"/>
<path d="M13.8711 15.4265H10.2686L12.9391 11.3156C13.0226 11.1867 13.1675 11.1081 13.3247 11.1081H16.2482C16.4336 11.1081 16.5466 11.307 16.4471 11.4605L13.8711 15.4265Z" fill="url(#paint46_linear_101_340)"/>
<path d="M14.5895 12.5509C14.4716 12.7301 14.2199 12.8762 14.0271 12.8762C13.8331 12.8762 13.7717 12.7301 13.8884 12.5509C14.005 12.3704 14.2567 12.2242 14.4507 12.2242C14.6447 12.2242 14.7061 12.3704 14.5895 12.5509Z" fill="black"/>
<path d="M14.4507 12.2869C14.2788 12.2869 14.0456 12.4232 13.9412 12.584C13.8945 12.6552 13.8798 12.7228 13.9019 12.7633C13.9265 12.8075 13.9903 12.8136 14.0271 12.8136C14.1978 12.8136 14.4323 12.6773 14.5367 12.5165C14.5834 12.4453 14.5981 12.3777 14.576 12.3384C14.5514 12.293 14.4876 12.2869 14.4507 12.2869ZM14.0271 12.9389C13.9166 12.9389 13.8331 12.8983 13.7914 12.8222C13.7472 12.7399 13.7631 12.6282 13.8356 12.5165C13.9657 12.3176 14.2359 12.1616 14.4507 12.1616C14.5613 12.1616 14.6447 12.2021 14.6853 12.2783C14.7307 12.3605 14.7147 12.4723 14.6423 12.584C14.5121 12.7829 14.242 12.9389 14.0271 12.9389Z" fill="url(#paint47_linear_101_340)"/>
<path d="M13.5557 15.7359H8.13716C7.95667 15.7359 7.80933 15.5886 7.80933 15.4068V15.3995H13.8835V15.4068C13.8835 15.5886 13.7362 15.7359 13.5557 15.7359Z" fill="url(#paint48_linear_101_340)"/>
<path d="M6.55181 0.0623049C5.02558 -0.420243 2.12538 2.00232 2.52198 3.80359C2.63248 4.30087 3.0168 4.85954 3.56074 5.13458C4.52584 5.62081 5.55601 4.99215 5.80404 5.38384C6.01891 5.72273 5.25519 6.21264 5.34728 6.92234C5.48357 7.97707 7.37447 8.4854 7.58934 8.54311C7.75019 8.58609 10.007 9.16318 11.0789 7.96111C11.3368 7.67134 11.6744 7.11143 11.4939 6.75535C11.3208 6.41647 10.7916 6.48891 10.6627 6.1316C10.5522 5.82218 10.907 5.64905 10.8714 5.30034C10.8014 4.62748 9.41271 4.5931 9.25064 3.88708C9.12171 3.32227 9.92841 2.99074 9.79089 2.43207C9.68039 1.98145 9.09838 1.96917 8.17135 1.39207C7.06014 0.702018 7.1289 0.245256 6.55181 0.0623049Z" fill="url(#paint49_linear_101_340)"/>
<path d="M8.25486 9.49958C8.29169 9.48117 8.79143 8.89057 9.08366 8.54308C9.06156 8.44608 9.06401 8.41539 9.07261 8.26927C9.07261 8.26927 8.92158 8.11824 8.98175 7.92056C9.05296 7.69095 9.27029 7.87513 9.27029 7.87513C9.27029 7.87513 9.37098 7.69832 9.74916 8.00283C10.1286 8.30611 10.5288 7.93652 10.5288 7.93652C10.5288 7.93652 10.5276 8.1649 10.3287 8.44117C10.2182 8.59342 10.1998 8.79479 10.1936 8.98388L9.98122 8.95319C9.86458 9.09194 9.77863 9.15947 9.61778 9.22577C9.61778 9.22577 9.49131 9.20244 9.3587 9.09316L9.12663 9.6236L9.36361 9.74884C9.36361 9.74884 9.41764 10.0816 8.79389 10.1651C8.17136 10.2473 7.67285 9.74884 7.67285 9.74884C7.67285 9.74884 8.0056 9.6236 8.25486 9.49958Z" fill="black"/>
<path d="M7.79212 9.76972C7.94928 9.89864 8.33729 10.1626 8.78545 10.1025C9.07768 10.0644 9.2017 9.96986 9.25572 9.89864C9.28765 9.85444 9.2987 9.81269 9.30115 9.78691L9.09733 9.68008C9.06786 9.66412 9.05558 9.62974 9.06909 9.59905L9.30115 9.06861C9.30975 9.05019 9.32571 9.03791 9.34413 9.033C9.36378 9.02809 9.38342 9.033 9.39938 9.04528C9.48902 9.12018 9.57619 9.15088 9.6118 9.1607C9.74687 9.10176 9.82545 9.04283 9.9335 8.91267C9.94824 8.89671 9.96911 8.88812 9.99121 8.8918L10.1336 8.91267C10.1435 8.73218 10.1729 8.55046 10.2773 8.40434C10.3694 8.27787 10.416 8.16245 10.4406 8.07896C10.2552 8.18701 9.97034 8.26068 9.71003 8.05195C9.50989 7.8911 9.40552 7.88127 9.36132 7.88987C9.33553 7.89355 9.32448 7.90706 9.32448 7.90706C9.31466 7.92302 9.2987 7.93407 9.28151 7.93653C9.26309 7.94021 9.24344 7.9353 9.22994 7.92302C9.20293 7.90092 9.13294 7.85794 9.09119 7.87022C9.07032 7.87636 9.05435 7.89969 9.04208 7.93898C8.99296 8.09738 9.11206 8.22016 9.11698 8.22507C9.12925 8.23858 9.13662 8.25577 9.13539 8.27296L9.13417 8.29629C9.1268 8.4203 9.12557 8.44732 9.14399 8.52958C9.1489 8.548 9.14399 8.56887 9.13171 8.58361C8.33606 9.52906 8.30291 9.54625 8.28203 9.55607C8.11382 9.64079 7.90999 9.72429 7.79212 9.76972ZM8.65162 10.2375C8.07821 10.2375 7.64846 9.81269 7.62881 9.79305C7.61408 9.77831 7.60671 9.75621 7.61162 9.73534C7.61653 9.71446 7.63127 9.69727 7.65091 9.68991C7.6546 9.68868 7.97875 9.56712 8.22187 9.44556C8.24397 9.42592 8.36307 9.3019 9.01629 8.5259C9.00033 8.44854 9.00279 8.40557 9.00892 8.29138C8.96472 8.23735 8.86527 8.08878 8.92175 7.90215C8.95367 7.79901 9.01261 7.7634 9.05681 7.74989C9.13539 7.72656 9.2152 7.76463 9.26432 7.79532C9.28274 7.78304 9.30729 7.77199 9.33799 7.76586C9.45341 7.74375 9.60566 7.8076 9.78861 7.95372C10.1201 8.22016 10.4713 7.9046 10.486 7.8911C10.5045 7.87391 10.5315 7.87022 10.5536 7.88005C10.5769 7.88987 10.5916 7.91197 10.5916 7.93776C10.5916 7.94758 10.5879 8.18824 10.3792 8.47801C10.2798 8.61553 10.2613 8.80339 10.2564 8.98635C10.2564 9.00354 10.2478 9.02073 10.2343 9.03178C10.2208 9.04405 10.2024 9.04897 10.1852 9.04651L10.0072 9.02073C9.89053 9.15333 9.79844 9.21964 9.64127 9.28471C9.63022 9.28963 9.61794 9.28963 9.60689 9.2884C9.60198 9.28717 9.5013 9.26875 9.38465 9.1914L9.20784 9.59659L9.39324 9.69359C9.41043 9.70219 9.42271 9.71938 9.42517 9.73902C9.42762 9.7513 9.44113 9.85812 9.35641 9.97231C9.25695 10.1062 9.07155 10.1909 8.80264 10.2265C8.75107 10.2338 8.70073 10.2375 8.65162 10.2375Z" fill="url(#paint50_linear_101_340)"/>
<path d="M9.35884 9.15585C9.34411 9.15585 9.32937 9.15094 9.31709 9.13989L9.24833 9.0785C9.22255 9.05517 9.22132 9.01588 9.24465 8.99009C9.26675 8.96431 9.30727 8.96185 9.33306 8.98518L9.40059 9.04657C9.42637 9.0699 9.42883 9.11042 9.4055 9.13621C9.39322 9.14971 9.37603 9.15585 9.35884 9.15585Z" fill="url(#paint51_linear_101_340)"/>
<defs>
<linearGradient id="paint0_linear_101_340" x1="13.3609" y1="40.2709" x2="13.3609" y2="45.2867" gradientUnits="userSpaceOnUse">
<stop stop-color="#32BC8B"/>
<stop offset="1" stop-color="#29B6C8"/>
</linearGradient>
<linearGradient id="paint1_linear_101_340" x1="13.3608" y1="39.2555" x2="13.3608" y2="41.1317" gradientUnits="userSpaceOnUse">
<stop stop-color="#32BC8B"/>
<stop offset="1" stop-color="#29B6C8"/>
</linearGradient>
<linearGradient id="paint2_linear_101_340" x1="13.6114" y1="35.6321" x2="13.6114" y2="40.6479" gradientUnits="userSpaceOnUse">
<stop stop-color="#32BC8B"/>
<stop offset="1" stop-color="#29B6C8"/>
</linearGradient>
<linearGradient id="paint3_linear_101_340" x1="13.6113" y1="34.6179" x2="13.6113" y2="36.4929" gradientUnits="userSpaceOnUse">
<stop stop-color="#32BC8B"/>
<stop offset="1" stop-color="#29B6C8"/>
</linearGradient>
<linearGradient id="paint4_linear_101_340" x1="13.5383" y1="30.8692" x2="13.5383" y2="35.9304" gradientUnits="userSpaceOnUse">
<stop stop-color="#32BC8B"/>
<stop offset="1" stop-color="#29B6C8"/>
</linearGradient>
<linearGradient id="paint5_linear_101_340" x1="13.5384" y1="29.8746" x2="13.5384" y2="31.7508" gradientUnits="userSpaceOnUse">
<stop stop-color="#32BC8B"/>
<stop offset="1" stop-color="#29B6C8"/>
</linearGradient>
<linearGradient id="paint6_linear_101_340" x1="13.6527" y1="25.9799" x2="13.6527" y2="31.0841" gradientUnits="userSpaceOnUse">
<stop stop-color="#32BC8B"/>
<stop offset="1" stop-color="#29B6C8"/>
</linearGradient>
<linearGradient id="paint7_linear_101_340" x1="13.6353" y1="25.0209" x2="13.6353" y2="26.8971" gradientUnits="userSpaceOnUse">
<stop stop-color="#32BC8B"/>
<stop offset="1" stop-color="#29B6C8"/>
</linearGradient>
<linearGradient id="paint8_linear_101_340" x1="13.5861" y1="21.1532" x2="13.5861" y2="26.1493" gradientUnits="userSpaceOnUse">
<stop stop-color="#32BC8B"/>
<stop offset="1" stop-color="#29B6C8"/>
</linearGradient>
<linearGradient id="paint9_linear_101_340" x1="13.5863" y1="20.112" x2="13.5863" y2="21.9869" gradientUnits="userSpaceOnUse">
<stop stop-color="#32BC8B"/>
<stop offset="1" stop-color="#29B6C8"/>
</linearGradient>
<linearGradient id="paint10_linear_101_340" x1="13.4768" y1="16.2639" x2="13.4768" y2="21.3902" gradientUnits="userSpaceOnUse">
<stop stop-color="#32BC8B"/>
<stop offset="1" stop-color="#29B6C8"/>
</linearGradient>
<linearGradient id="paint11_linear_101_340" x1="13.4893" y1="15.3123" x2="13.4893" y2="17.1885" gradientUnits="userSpaceOnUse">
<stop stop-color="#32BC8B"/>
<stop offset="1" stop-color="#29B6C8"/>
</linearGradient>
<linearGradient id="paint12_linear_101_340" x1="34.773" y1="0.208801" x2="34.773" y2="18.5698" gradientUnits="userSpaceOnUse">
<stop stop-color="#32BC8B"/>
<stop offset="1" stop-color="#29B6C8"/>
</linearGradient>
<linearGradient id="paint13_linear_101_340" x1="35.7265" y1="0.517822" x2="35.7265" y2="19.0094" gradientUnits="userSpaceOnUse">
<stop stop-color="#32BC8B"/>
<stop offset="1" stop-color="#29B6C8"/>
</linearGradient>
<linearGradient id="paint14_linear_101_340" x1="19.505" y1="24.52" x2="19.505" y2="50.0925" gradientUnits="userSpaceOnUse">
<stop stop-color="#32BC8B"/>
<stop offset="1" stop-color="#29B6C8"/>
</linearGradient>
<linearGradient id="paint15_linear_101_340" x1="23.1043" y1="24.536" x2="23.1043" y2="50.0754" gradientUnits="userSpaceOnUse">
<stop stop-color="#32BC8B"/>
<stop offset="1" stop-color="#29B6C8"/>
</linearGradient>
<linearGradient id="paint16_linear_101_340" x1="23.0754" y1="25.4139" x2="23.0754" y2="49.1975" gradientUnits="userSpaceOnUse">
<stop stop-color="#32BC8B"/>
<stop offset="1" stop-color="#29B6C8"/>
</linearGradient>
<linearGradient id="paint17_linear_101_340" x1="29.1156" y1="50.0804" x2="29.1156" y2="52.1481" gradientUnits="userSpaceOnUse">
<stop stop-color="#32BC8B"/>
<stop offset="1" stop-color="#29B6C8"/>
</linearGradient>
<linearGradient id="paint18_linear_101_340" x1="28.8718" y1="9.62244" x2="28.8718" y2="16.0761" gradientUnits="userSpaceOnUse">
<stop stop-color="#32BC8B"/>
<stop offset="1" stop-color="#29B6C8"/>
</linearGradient>
<linearGradient id="paint19_linear_101_340" x1="33.9883" y1="11.2358" x2="33.9883" y2="16.0761" gradientUnits="userSpaceOnUse">
<stop stop-color="#32BC8B"/>
<stop offset="1" stop-color="#29B6C8"/>
</linearGradient>
<linearGradient id="paint20_linear_101_340" x1="38.6727" y1="11.2358" x2="38.6727" y2="16.0761" gradientUnits="userSpaceOnUse">
<stop stop-color="#32BC8B"/>
<stop offset="1" stop-color="#29B6C8"/>
</linearGradient>
<linearGradient id="paint21_linear_101_340" x1="43.7662" y1="9.62244" x2="43.7662" y2="16.0761" gradientUnits="userSpaceOnUse">
<stop stop-color="#32BC8B"/>
<stop offset="1" stop-color="#29B6C8"/>
</linearGradient>
<linearGradient id="paint22_linear_101_340" x1="42.8323" y1="29.2448" x2="42.8323" y2="50.2326" gradientUnits="userSpaceOnUse">
<stop stop-color="#32BC8B"/>
<stop offset="1" stop-color="#29B6C8"/>
</linearGradient>
<linearGradient id="paint23_linear_101_340" x1="43.4303" y1="29.2252" x2="43.4303" y2="50.2584" gradientUnits="userSpaceOnUse">
<stop stop-color="#32BC8B"/>
<stop offset="1" stop-color="#29B6C8"/>
</linearGradient>
<linearGradient id="paint24_linear_101_340" x1="43.4889" y1="30.7219" x2="43.4889" y2="49.6899" gradientUnits="userSpaceOnUse">
<stop stop-color="#32BC8B"/>
<stop offset="1" stop-color="#29B6C8"/>
</linearGradient>
<linearGradient id="paint25_linear_101_340" x1="42.2006" y1="29.6304" x2="42.2006" y2="30.3352" gradientUnits="userSpaceOnUse">
<stop stop-color="#32BC8B"/>
<stop offset="1" stop-color="#29B6C8"/>
</linearGradient>
<linearGradient id="paint26_linear_101_340" x1="19.6238" y1="30.8151" x2="19.6238" y2="46.3292" gradientUnits="userSpaceOnUse">
<stop stop-color="#32BC8B"/>
<stop offset="1" stop-color="#29B6C8"/>
</linearGradient>
<linearGradient id="paint27_linear_101_340" x1="30.5361" y1="29.8399" x2="30.5361" y2="36.8391" gradientUnits="userSpaceOnUse">
<stop stop-color="#32BC8B"/>
<stop offset="1" stop-color="#29B6C8"/>
</linearGradient>
<linearGradient id="paint28_linear_101_340" x1="43.3316" y1="21.0948" x2="43.3316" y2="26.9512" gradientUnits="userSpaceOnUse">
<stop stop-color="#32BC8B"/>
<stop offset="1" stop-color="#29B6C8"/>
</linearGradient>
<linearGradient id="paint29_linear_101_340" x1="43.2489" y1="22.1705" x2="43.2489" y2="26.026" gradientUnits="userSpaceOnUse">
<stop stop-color="#32BC8B"/>
<stop offset="1" stop-color="#29B6C8"/>
</linearGradient>
<linearGradient id="paint30_linear_101_340" x1="50.0823" y1="4.25726" x2="50.0823" y2="4.79938" gradientUnits="userSpaceOnUse">
<stop stop-color="#32BC8B"/>
<stop offset="1" stop-color="#29B6C8"/>
</linearGradient>
<linearGradient id="paint31_linear_101_340" x1="49.7495" y1="5.71759" x2="49.7495" y2="6.26055" gradientUnits="userSpaceOnUse">
<stop stop-color="#32BC8B"/>
<stop offset="1" stop-color="#29B6C8"/>
</linearGradient>
<linearGradient id="paint32_linear_101_340" x1="49.199" y1="4.9718" x2="49.199" y2="5.19721" gradientUnits="userSpaceOnUse">
<stop stop-color="#32BC8B"/>
<stop offset="1" stop-color="#29B6C8"/>
</linearGradient>
<linearGradient id="paint33_linear_101_340" x1="50.6319" y1="5.3205" x2="50.6319" y2="5.5459" gradientUnits="userSpaceOnUse">
<stop stop-color="#32BC8B"/>
<stop offset="1" stop-color="#29B6C8"/>
</linearGradient>
<linearGradient id="paint34_linear_101_340" x1="49.5898" y1="1.45209" x2="49.5898" y2="2.74765" gradientUnits="userSpaceOnUse">
<stop stop-color="#32BC8B"/>
<stop offset="1" stop-color="#29B6C8"/>
</linearGradient>
<linearGradient id="paint35_linear_101_340" x1="46.2401" y1="1.82343" x2="46.2401" y2="2.78326" gradientUnits="userSpaceOnUse">
<stop stop-color="#32BC8B"/>
<stop offset="1" stop-color="#29B6C8"/>
</linearGradient>
<linearGradient id="paint36_linear_101_340" x1="7.58776" y1="15.9891" x2="7.58776" y2="16.9767" gradientUnits="userSpaceOnUse">
<stop stop-color="#32BC8B"/>
<stop offset="1" stop-color="#29B6C8"/>
</linearGradient>
<linearGradient id="paint37_linear_101_340" x1="12.9268" y1="24.4864" x2="12.9268" y2="27.0654" gradientUnits="userSpaceOnUse">
<stop stop-color="#32BC8B"/>
<stop offset="1" stop-color="#29B6C8"/>
</linearGradient>
<linearGradient id="paint38_linear_101_340" x1="11.9587" y1="25.4503" x2="11.9587" y2="29.3075" gradientUnits="userSpaceOnUse">
<stop stop-color="#32BC8B"/>
<stop offset="1" stop-color="#29B6C8"/>
</linearGradient>
<linearGradient id="paint39_linear_101_340" x1="16.8935" y1="25.2354" x2="16.8935" y2="27.4804" gradientUnits="userSpaceOnUse">
<stop stop-color="#32BC8B"/>
<stop offset="1" stop-color="#29B6C8"/>
</linearGradient>
<linearGradient id="paint40_linear_101_340" x1="17.3541" y1="26.6002" x2="17.3541" y2="29.8149" gradientUnits="userSpaceOnUse">
<stop stop-color="#32BC8B"/>
<stop offset="1" stop-color="#29B6C8"/>
</linearGradient>
<linearGradient id="paint41_linear_101_340" x1="13.2432" y1="15.1741" x2="13.2432" y2="25.6521" gradientUnits="userSpaceOnUse">
<stop stop-color="#32BC8B"/>
<stop offset="1" stop-color="#29B6C8"/>
</linearGradient>
<linearGradient id="paint42_linear_101_340" x1="12.1794" y1="14.8828" x2="12.1794" y2="26.1505" gradientUnits="userSpaceOnUse">
<stop stop-color="#32BC8B"/>
<stop offset="1" stop-color="#29B6C8"/>
</linearGradient>
<linearGradient id="paint43_linear_101_340" x1="8.66972" y1="9.55896" x2="8.66972" y2="16.8189" gradientUnits="userSpaceOnUse">
<stop stop-color="#32BC8B"/>
<stop offset="1" stop-color="#29B6C8"/>
</linearGradient>
<linearGradient id="paint44_linear_101_340" x1="7.73327" y1="11.4903" x2="7.73327" y2="15.4032" gradientUnits="userSpaceOnUse">
<stop stop-color="#32BC8B"/>
<stop offset="1" stop-color="#29B6C8"/>
</linearGradient>
<linearGradient id="paint45_linear_101_340" x1="6.01317" y1="11.3491" x2="6.01317" y2="12.1604" gradientUnits="userSpaceOnUse">
<stop stop-color="#32BC8B"/>
<stop offset="1" stop-color="#29B6C8"/>
</linearGradient>
<linearGradient id="paint46_linear_101_340" x1="13.3763" y1="11.1081" x2="13.3763" y2="15.4265" gradientUnits="userSpaceOnUse">
<stop stop-color="#32BC8B"/>
<stop offset="1" stop-color="#29B6C8"/>
</linearGradient>
<linearGradient id="paint47_linear_101_340" x1="14.2388" y1="12.1616" x2="14.2388" y2="12.9389" gradientUnits="userSpaceOnUse">
<stop stop-color="#32BC8B"/>
<stop offset="1" stop-color="#29B6C8"/>
</linearGradient>
<linearGradient id="paint48_linear_101_340" x1="10.8464" y1="15.3995" x2="10.8464" y2="15.7359" gradientUnits="userSpaceOnUse">
<stop stop-color="#32BC8B"/>
<stop offset="1" stop-color="#29B6C8"/>
</linearGradient>
<linearGradient id="paint49_linear_101_340" x1="7.01498" y1="0" x2="7.01498" y2="8.71901" gradientUnits="userSpaceOnUse">
<stop stop-color="#32BC8B"/>
<stop offset="1" stop-color="#29B6C8"/>
</linearGradient>
<linearGradient id="paint50_linear_101_340" x1="9.10087" y1="7.74268" x2="9.10087" y2="10.2375" gradientUnits="userSpaceOnUse">
<stop stop-color="#32BC8B"/>
<stop offset="1" stop-color="#29B6C8"/>
</linearGradient>
<linearGradient id="paint51_linear_101_340" x1="9.3248" y1="8.96912" x2="9.3248" y2="9.15585" gradientUnits="userSpaceOnUse">
<stop stop-color="#32BC8B"/>
<stop offset="1" stop-color="#29B6C8"/>
</linearGradient>
</defs>
</svg>
