<svg width="77" height="80" viewBox="0 0 77 80" fill="none" xmlns="http://www.w3.org/2000/svg">
<mask id="mask0_78_278" style="mask-type:luminance" maskUnits="userSpaceOnUse" x="0" y="0" width="77" height="80">
<path d="M0 0H76.9219V80H0V0Z" fill="white"/>
</mask>
<g mask="url(#mask0_78_278)">
<path fill-rule="evenodd" clip-rule="evenodd" d="M50.7103 71.3917H53.8233C54.5324 71.3917 55.1053 71.9896 55.1053 72.725C55.1053 73.4604 54.5324 74.0584 53.8233 74.0584H5.73708C5.02996 74.0584 4.45505 73.4604 4.45505 72.725C4.45505 71.9896 5.02996 71.3917 5.73708 71.3917H8.85201V60.8479C8.85201 60.3896 9.21058 60.0146 9.65329 60.0146H14.4188C14.8615 60.0146 15.2221 60.3896 15.2221 60.8479V71.3917H20.6808V54.1875C20.6808 53.7271 21.0413 53.3542 21.484 53.3542H26.2496C26.6923 53.3542 27.0529 53.7271 27.0529 54.1875V71.3917H32.5095V47.2334C32.5095 46.7729 32.8681 46.4 33.3108 46.4H38.0803C38.523 46.4 38.8816 46.7729 38.8816 47.2334V71.3917H44.3403V40.9771C44.3403 40.7563 44.4244 40.5438 44.5746 40.3875C44.7249 40.2313 44.9292 40.1438 45.1415 40.1438H49.9091C50.1214 40.1438 50.3257 40.2313 50.476 40.3875C50.6262 40.5438 50.7103 40.7563 50.7103 40.9771V71.3917ZM0.0200195 38.6479C0.685073 17.625 16.9729 0.685441 37.1869 -0.00622559V14.975C37.1869 14.9875 37.1869 15 37.1869 15.0104C24.9635 15.6854 15.1079 25.9354 14.4589 38.6479C14.4489 38.6479 14.4369 38.6479 14.4268 38.6479H0.0200195ZM39.751 -0.00622559C49.4003 0.322941 58.1561 4.35627 64.7446 10.7688L54.5484 21.3729C54.5404 21.3813 54.5324 21.3896 54.5244 21.3979C50.5601 17.6875 45.4079 15.3229 39.751 15.0104C39.751 15 39.751 14.9875 39.751 14.975V-0.00622559ZM66.5575 12.6542C72.7232 19.5063 76.5994 28.6125 76.9179 38.6479H62.513C62.501 38.6479 62.489 38.6479 62.479 38.6479C62.1785 32.7625 59.9049 27.4063 56.3373 23.2834C56.3453 23.275 56.3533 23.2667 56.3613 23.2584L66.5575 12.6542ZM76.9179 41.3146C76.5994 51.35 72.7232 60.4563 66.5575 67.3063L56.3613 56.7042C56.3533 56.6959 56.3453 56.6875 56.3373 56.6792C59.9049 52.5563 62.1785 47.1979 62.479 41.3146C62.489 41.3146 62.501 41.3146 62.513 41.3146H76.9179ZM64.7446 69.1938C62.3949 71.4792 59.7727 73.4604 56.9322 75.0834C57.3969 74.4209 57.6714 73.6063 57.6714 72.725C57.6714 70.5167 55.9466 68.725 53.8233 68.725H53.2744V59.6584C53.7031 59.3084 54.1197 58.9438 54.5244 58.5646C54.5324 58.5729 54.5404 58.5813 54.5484 58.5896L64.7446 69.1938ZM14.4589 41.3146C14.505 42.2167 14.5991 43.1084 14.7353 43.9854C14.1364 44.1167 13.5394 44.2209 12.9465 44.3021C11.4461 44.4917 10.3043 45.8104 10.2803 47.3896C10.2582 48.9792 11.374 50.3375 12.8864 50.5646C12.9185 50.5688 12.9525 50.5729 12.9866 50.5771C14.2125 50.7104 15.4745 50.7521 16.7565 50.7021C17.1852 51.6354 17.668 52.5396 18.2008 53.4042C18.1467 53.6563 18.1167 53.9188 18.1167 54.1875V60.8479H17.7862C17.7862 58.9167 16.2798 57.3479 14.4188 57.3479H9.65329C7.79434 57.3479 6.28595 58.9167 6.28595 60.8479V61.8959C2.532 55.9459 0.2604 48.8959 0.0200195 41.3146H14.4268C14.4369 41.3146 14.4489 41.3146 14.4589 41.3146ZM53.6991 76.7271C49.0277 78.825 43.8775 79.9896 38.4689 79.9896C33.0604 79.9896 27.9102 78.825 23.2388 76.7271H53.6991ZM40.0835 33.9354C37.7198 37.9063 34.1441 41.5125 29.6049 44.1479C24.2083 47.2771 18.4072 48.4813 13.251 47.925C13.0146 47.8896 12.8423 47.6771 12.8443 47.4292C12.8483 47.1834 13.0286 46.9771 13.265 46.95C16.6043 46.4938 20.0097 45.3542 23.6034 43.2709C28.0905 40.6667 33.3168 35.5209 35.955 31.0542L33.9298 29.6438C33.7795 29.5396 33.6994 29.3542 33.7214 29.1667C33.7435 28.9813 33.8636 28.8229 34.0339 28.7584L40.8347 26.1979C41.0651 26.1104 41.3235 26.1396 41.5318 26.275C41.7401 26.4104 41.8783 26.6396 41.9044 26.8938L42.7117 34.7792C42.7317 34.9729 42.6416 35.1604 42.4813 35.2604C42.3211 35.3625 42.1207 35.3563 41.9645 35.2479L40.0835 33.9354Z" fill="url(#paint0_linear_78_278)"/>
</g>
<defs>
<linearGradient id="paint0_linear_78_278" x1="38.4689" y1="-0.00622559" x2="38.4689" y2="79.9896" gradientUnits="userSpaceOnUse">
<stop stop-color="#32BC8B"/>
<stop offset="1" stop-color="#29B6C8"/>
</linearGradient>
</defs>
</svg>
