<svg width="54" height="49" viewBox="0 0 54 49" fill="none" xmlns="http://www.w3.org/2000/svg">
<mask id="mask0_101_718" style="mask-type:luminance" maskUnits="userSpaceOnUse" x="0" y="13" width="54" height="36">
<path d="M0 13.509H53.4946V48.2812H0V13.509Z" fill="white"/>
</mask>
<g mask="url(#mask0_101_718)">
<path d="M52.2904 46.3538H50.1996V14.5901C50.1996 14.0574 49.7706 13.6257 49.2392 13.6257H43.1379C42.6077 13.6257 42.1774 14.0574 42.1774 14.5901V46.3538H40.3083V20.729C40.3083 20.1962 39.8779 19.7646 39.3478 19.7646H33.2465C32.7164 19.7646 32.286 20.1962 32.286 20.729V46.3538H30.4169V26.8678C30.4169 26.3351 29.9865 25.9034 29.4564 25.9034H23.3551C22.825 25.9034 22.3946 26.3351 22.3946 26.8678V46.3538H20.5255V32.7293C20.5255 32.1965 20.0952 31.7649 19.565 31.7649H13.4637C12.9323 31.7649 12.502 32.1965 12.502 32.7293V46.3538H10.6341V38.8681C10.6341 38.3367 10.2038 37.9038 9.67362 37.9038H3.57236C3.04221 37.9038 2.61186 38.3367 2.61186 38.8681V46.3538H0.960492C0.430342 46.3538 0 46.7854 0 47.3181C0 47.8509 0.430342 48.2825 0.960492 48.2825H52.2904C52.8219 48.2825 53.2509 47.8509 53.2509 47.3181C53.2522 46.7854 52.8219 46.3538 52.2904 46.3538ZM4.53285 46.3538V39.8325H8.71313V46.3538H4.53285ZM14.4242 46.3538V33.6937H18.6045V46.3538H14.4242ZM24.3156 46.3538V27.8322H28.4959V46.3538H24.3156ZM34.207 46.3538V21.6933H38.3873V46.3538H34.207ZM44.0984 46.3538V15.5532H48.2787V46.3538H44.0984Z" fill="url(#paint0_linear_101_718)"/>
</g>
<mask id="mask1_101_718" style="mask-type:luminance" maskUnits="userSpaceOnUse" x="2" y="0" width="52" height="38">
<path d="M2.39282 0H53.4946V37.069H2.39282V0Z" fill="white"/>
</mask>
<g mask="url(#mask1_101_718)">
<path d="M3.57231 36.8253C4.10246 36.8253 4.5328 36.3936 4.5328 35.8609V35.7585H9.67357C10.2037 35.7585 10.6341 35.3269 10.6341 34.7954V29.6196H19.565C20.0951 29.6196 20.5254 29.188 20.5254 28.6553V23.7582H29.4563C29.9878 23.7582 30.4181 23.3265 30.4181 22.7938V17.6193H39.349C39.8792 17.6193 40.3095 17.1877 40.3095 16.6549V11.4792H49.2404C49.7705 11.4792 50.2009 11.0475 50.2009 10.5161V3.38564L51.7732 4.96313C52.1478 5.34033 52.7557 5.34033 53.1316 4.96313C53.5062 4.58723 53.5062 3.97671 53.1316 3.60081L49.9196 0.377136C49.545 -6.10501e-05 48.9358 -6.10501e-05 48.5612 0.377136L45.3479 3.60081C44.9733 3.97671 44.9733 4.58723 45.3479 4.96313C45.5358 5.15238 45.7821 5.2457 46.0271 5.2457C46.2734 5.2457 46.5197 5.15238 46.7076 4.96313L48.2786 3.38564V9.55171H39.3477C38.8176 9.55171 38.3872 9.98335 38.3872 10.5161V15.6906H29.4563C28.9262 15.6906 28.4958 16.1222 28.4958 16.6549V21.8307H19.565C19.0348 21.8307 18.6045 22.2624 18.6045 22.7938V27.6922H9.67357C9.14342 27.6922 8.71308 28.1238 8.71308 28.6566V33.831H3.57231C3.04216 33.831 2.61182 34.2627 2.61182 34.7954V35.8622C2.61182 36.3936 3.04216 36.8253 3.57231 36.8253Z" fill="url(#paint1_linear_101_718)"/>
</g>
<defs>
<linearGradient id="paint0_linear_101_718" x1="26.6255" y1="13.6257" x2="26.6255" y2="48.2825" gradientUnits="userSpaceOnUse">
<stop stop-color="#29B6C8"/>
<stop offset="1" stop-color="#32BC8B"/>
</linearGradient>
<linearGradient id="paint1_linear_101_718" x1="28.0122" y1="0.0942383" x2="28.0122" y2="36.8253" gradientUnits="userSpaceOnUse">
<stop stop-color="#29B6C8"/>
<stop offset="1" stop-color="#32BC8B"/>
</linearGradient>
</defs>
</svg>
