<svg width="88" height="75" viewBox="0 0 88 75" fill="none" xmlns="http://www.w3.org/2000/svg">
<mask id="mask0_78_272" style="mask-type:luminance" maskUnits="userSpaceOnUse" x="0" y="45" width="88" height="13">
<path d="M0 45.7484H88V57.9435H0V45.7484Z" fill="white"/>
</mask>
<g mask="url(#mask0_78_272)">
<path d="M0.0229492 49.7666C0.0229492 54.1088 3.43066 57.6506 7.60837 57.6506H80.3917C84.5694 57.6506 87.9771 54.1088 87.9771 49.7666V45.9938H0.0229492V49.7666ZM40.1157 50.5669H47.9027C48.5627 50.5669 49.1127 51.1172 49.1127 51.8222C49.1127 52.5082 48.5811 53.0798 47.9027 53.0798H40.1157C39.4557 53.0798 38.9057 52.5272 38.9057 51.8222C38.9057 51.1362 39.4373 50.5669 40.1157 50.5669Z" fill="url(#paint0_linear_78_272)"/>
</g>
<mask id="mask1_78_272" style="mask-type:luminance" maskUnits="userSpaceOnUse" x="0" y="0" width="88" height="44">
<path d="M0 0H88V43.9191H0V0Z" fill="white"/>
</mask>
<g mask="url(#mask1_78_272)">
<path d="M80.3917 0H7.60837C3.43066 0 0.0229492 3.52515 0.0229492 7.88633V43.4808H87.9771V7.88633C87.9771 3.52515 84.5694 0 80.3917 0ZM26.1525 22.6824C26.1525 28.6061 21.5165 33.4246 15.8171 33.4246C10.1177 33.4246 5.4817 28.6061 5.4817 22.6824V11.3138C5.4817 10.6279 6.01337 10.0562 6.6917 10.0562C7.37003 10.0562 7.9017 10.6088 7.9017 11.3138V22.6824C7.9017 27.2151 11.4561 30.9118 15.8171 30.9118C20.1782 30.9118 23.7325 27.2151 23.7325 22.6824V11.3138C23.7325 10.6279 24.2642 10.0562 24.9425 10.0562C25.6025 10.0562 26.1525 10.6088 26.1525 11.3138V22.6824ZM42.7167 31.4834C43.0834 32.0527 42.9184 32.8339 42.3684 33.215C42.1667 33.3484 41.9284 33.4246 41.7084 33.4246C41.3234 33.4246 40.9384 33.2341 40.7023 32.853L35.1313 24.0353L29.5602 32.853C29.3219 33.215 28.9369 33.4246 28.5519 33.4246C28.3319 33.4246 28.0936 33.3675 27.8919 33.215C27.3419 32.8339 27.1792 32.0527 27.5436 31.4834L33.683 21.7511L27.5436 12.0189C27.1792 11.4472 27.3419 10.666 27.8919 10.2849C28.4419 9.90377 29.1936 10.0753 29.5602 10.6469L35.1313 19.4645L40.7023 10.6469C41.0667 10.0753 41.8184 9.90377 42.3684 10.2849C42.9184 10.666 43.0834 11.4472 42.7167 12.0189L36.5773 21.7511L42.7167 31.4834ZM54.1888 8.68426L47.2977 35.4444C47.1511 35.997 46.6744 36.3781 46.1427 36.3781C46.0327 36.3781 45.9411 36.3591 45.8311 36.34C45.1917 36.1685 44.8067 35.4825 44.99 34.8156L51.8788 8.07688C52.0438 7.40996 52.7038 7.00981 53.3455 7.20036C53.9688 7.33374 54.3515 8.01972 54.1888 8.68426ZM77.0917 22.6824C77.0917 28.6061 72.4557 33.4246 66.7586 33.4246C61.0592 33.4246 56.4232 28.6061 56.4232 22.6824V11.3138C56.4232 10.6279 56.9548 10.0562 57.6332 10.0562C58.2932 10.0562 58.8432 10.6088 58.8432 11.3138V22.6824C58.8432 27.2151 62.3975 30.9118 66.7586 30.9118C71.1196 30.9118 74.674 27.2151 74.674 22.6824V11.3138C74.674 10.6279 75.2057 10.0562 75.884 10.0562C76.544 10.0562 77.0917 10.6088 77.0917 11.3138V22.6824ZM82.5161 32.167C82.5161 32.853 81.9844 33.4246 81.3084 33.4246C80.63 33.4246 80.0984 32.872 80.0984 32.167V11.3138C80.0984 10.6279 80.63 10.0562 81.3084 10.0562C81.9844 10.0562 82.5161 10.6088 82.5161 11.3138V32.167Z" fill="url(#paint1_linear_78_272)"/>
</g>
<mask id="mask2_78_272" style="mask-type:luminance" maskUnits="userSpaceOnUse" x="31" y="71" width="25" height="4">
<path d="M31.8107 71.3582H55.864V75H31.8107V71.3582Z" fill="white"/>
</mask>
<g mask="url(#mask2_78_272)">
<path d="M54.0787 71.6104H33.9212C33.0229 71.6104 32.2896 72.3725 32.2896 73.3062V74.9997H55.7081V73.3062C55.7081 72.3725 54.9748 71.6104 54.0787 71.6104Z" fill="url(#paint2_linear_78_272)"/>
</g>
<path d="M36.0113 69.0977H51.9888L56.0382 60.1633H31.9597L36.0113 69.0977Z" fill="url(#paint3_linear_78_272)"/>
<defs>
<linearGradient id="paint0_linear_78_272" x1="44" y1="45.9938" x2="44" y2="57.6506" gradientUnits="userSpaceOnUse">
<stop stop-color="#32BC8B"/>
<stop offset="1" stop-color="#29B6C8"/>
</linearGradient>
<linearGradient id="paint1_linear_78_272" x1="44" y1="0" x2="44" y2="43.4808" gradientUnits="userSpaceOnUse">
<stop stop-color="#32BC8B"/>
<stop offset="1" stop-color="#29B6C8"/>
</linearGradient>
<linearGradient id="paint2_linear_78_272" x1="43.9988" y1="71.6104" x2="43.9988" y2="74.9997" gradientUnits="userSpaceOnUse">
<stop stop-color="#32BC8B"/>
<stop offset="1" stop-color="#29B6C8"/>
</linearGradient>
<linearGradient id="paint3_linear_78_272" x1="43.9989" y1="60.1633" x2="43.9989" y2="69.0977" gradientUnits="userSpaceOnUse">
<stop stop-color="#32BC8B"/>
<stop offset="1" stop-color="#29B6C8"/>
</linearGradient>
</defs>
</svg>
